<svg id="exportSVG" visibility="visible" xmlns="http://www.w3.org/2000/svg" xmlns:xlink="http://www.w3.org/1999/xlink" version="1.1" data-info="draw.ninja" data-name="draw" viewBox="0 0 180 550" width="180" height="550" style="position: fixed; top: 0px; left: 0px;"><defs id="defsExport"><filter id="filter0"><feGaussianBlur stdDeviation="0"></feGaussianBlur></filter><pattern id="patternImage" patternUnits="userSpaceOnUse" x="0" y="0" width="1" height="1" data-x="0" data-y="0" data-width="1" data-height="1" data-multx="1" data-multy="1" patternTransform="matrix(1,0,0,1,0,0)" data-transs="0" data-transf="0" data-source="patternImage" data-draw="1" fill="#B3B3B3" fill-opacity="1"></pattern><pattern id="pattern0" patternUnits="userSpaceOnUse" x="0" y="0" width="10" height="10" data-x="0" data-y="0" data-width="10" data-height="10" data-multx="1" data-multy="1" stroke="none" patternTransform="matrix(1,0,0,1,0,0)" data-transs="0" data-transf="0" data-source="Pattern 0" data-draw="1" fill="#B3B3B3" fill-opacity="1"><path transform="matrix(1,0,0,1,0,0)" d="M0 0 L5 0 L5 5 L0 5 L0 0 Z" class="kshaWuzU_0"></path></pattern><pattern id="pattern1" patternUnits="userSpaceOnUse" x="0" y="0" width="10" height="10" data-x="0" data-y="0" data-width="10" data-height="10" data-multx="1" data-multy="1" stroke="none" patternTransform="matrix(1,0,0,1,0,0)" data-transs="0" data-transf="0" data-source="Pattern 1" data-draw="1" fill="#B3B3B3" fill-opacity="1"><path transform="matrix(1,0,0,1,0,0)" d="M0 5 L5 0 L10 5 L5 10 L0 5 Z" class="kshaWuzU_1"></path></pattern><pattern id="pattern2" patternUnits="userSpaceOnUse" x="0" y="0" width="10" height="10" data-x="0" data-y="0" data-width="10" data-height="10" data-multx="1" data-multy="1" stroke="none" patternTransform="matrix(1,0,0,1,0,0)" data-transs="0" data-transf="0" data-source="Pattern 2" data-draw="1" fill="#B3B3B3" fill-opacity="1"><path transform="matrix(1,0,0,1,0,0)" d="M0 9 L5 1 L10 9 L0 9 Z" class="kshaWuzU_2"></path></pattern><pattern id="pattern3" patternUnits="userSpaceOnUse" x="0" y="0" width="10" height="10" data-x="0" data-y="0" data-width="10" data-height="10" data-multx="1" data-multy="1" stroke="none" patternTransform="matrix(1,0,0,1,0,0)" data-transs="0" data-transf="0" data-source="Pattern 3" data-draw="1" fill="#B3B3B3" fill-opacity="1"><path transform="matrix(1,0,0,1,0,0)" d="M0 5 C0 2.25 2.25 0 5 0 C7.75 0 10 2.25 10 5 C10 7.75 7.75 10 5 10 C2.25 10 0 7.75 0 5 Z" class="kshaWuzU_3"></path></pattern><pattern id="pattern4" patternUnits="userSpaceOnUse" x="0" y="0" width="10" height="10" data-x="0" data-y="0" data-width="10" data-height="10" data-multx="1" data-multy="1" stroke="none" patternTransform="matrix(1,0,0,1,0,0)" data-transs="0" data-transf="0" data-source="Pattern 4" data-draw="1" fill="#B3B3B3" fill-opacity="1"><path transform="matrix(1,0,0,1,0,0)" d="M0 5 L4 4 L5 0 L6 4 L10 5 L6 6 L5 10 L4 6 L0 5 Z" class="kshaWuzU_4"></path></pattern><pattern id="pattern5" patternUnits="userSpaceOnUse" x="0" y="0" width="10" height="10" data-x="0" data-y="0" data-width="10" data-height="10" data-multx="1" data-multy="1" stroke="none" patternTransform="matrix(1,0,0,1,0,0)" data-transs="0" data-transf="0" data-source="Pattern 5" data-draw="1" fill="#B3B3B3" fill-opacity="1"><path transform="matrix(1,0,0,1,0,0)" d="M5 10 C-5 2.75 3 -1.75 5 1 C7 -1.75 15 2.75 5 10 Z" class="kshaWuzU_5"></path></pattern><pattern id="pattern6" patternUnits="userSpaceOnUse" x="0" y="0" width="10" height="10" data-x="0" data-y="0" data-width="10" data-height="10" data-multx="1" data-multy="1" stroke="none" patternTransform="matrix(1,0,0,1,0,0)" data-transs="0" data-transf="0" data-source="Pattern 6" data-draw="1" fill="#B3B3B3" fill-opacity="1"><path transform="matrix(1,0,0,1,0,0)" d="M3 0 L7 0 L7 10 L3 10 L3 0 Z" class="kshaWuzU_6"></path></pattern><pattern id="pattern7" patternUnits="userSpaceOnUse" x="0" y="0" width="10" height="10" data-x="0" data-y="0" data-width="10" data-height="10" data-multx="1" data-multy="1" stroke="none" patternTransform="matrix(1,0,0,1,0,0)" data-transs="0" data-transf="0" data-source="Pattern 7" data-draw="1" fill="#B3B3B3" fill-opacity="1"><path transform="matrix(1,0,0,1,0,0)" d="M10 3 L10 7 L0 7 L0 3 L10 3 Z" class="kshaWuzU_7"></path></pattern><pattern id="pattern8" patternUnits="userSpaceOnUse" x="0" y="0" width="10" height="10" data-x="0" data-y="0" data-width="10" data-height="10" data-multx="1" data-multy="1" stroke="none" patternTransform="matrix(1,0,0,1,0,0)" data-transs="0" data-transf="0" data-source="Pattern 8" data-draw="1" fill="#B3B3B3" fill-opacity="1"><path transform="matrix(1,0,0,1,0,0)" d="M0 10 L3 3 L10 0 L7 7 L0 10 Z" class="kshaWuzU_8"></path></pattern><pattern id="pattern9" patternUnits="userSpaceOnUse" x="0" y="0" width="10" height="10" data-x="0" data-y="0" data-width="10" data-height="10" data-multx="1" data-multy="1" stroke="none" patternTransform="matrix(1,0,0,1,0,0)" data-transs="0" data-transf="0" data-source="Pattern 9" data-draw="1" fill="#B3B3B3" fill-opacity="1"><path transform="matrix(1,0,0,1,0,0)" d="M0 4 L10 4 L10 6 L0 6 L0 4 Z M4 10 L4 0 L6 0 L6 10 L4 10 Z" class="kshaWuzU_9"></path></pattern><linearGradient id="linearSystem" gradientUnits="objectBoundingBox" x1="0%" y1="50%" x2="100%" y2="50%" spreadMethod="pad"><stop offset="50%" stop-color="#D0D0D0" stop-opacity="1"></stop><stop offset="100%" stop-color="transparent" stop-opacity="1"></stop></linearGradient><linearGradient id="linearSystem1" gradientUnits="objectBoundingBox" x1="0%" y1="50%" x2="100%" y2="50%" spreadMethod="pad"><stop offset="30%" stop-color="#D0D0D0" stop-opacity="1"></stop><stop offset="100%" stop-color="transparent" stop-opacity="1"></stop></linearGradient><linearGradient id="linearSystem2" gradientUnits="objectBoundingBox" x1="0%" y1="50%" x2="50%" y2="50%" spreadMethod="repeat"><stop offset="30%" stop-color="#D0D0D0" stop-opacity="1"></stop><stop offset="100%" stop-color="transparent" stop-opacity="1"></stop></linearGradient><linearGradient id="linearSystem3" gradientUnits="objectBoundingBox" x1="0%" y1="50%" x2="50%" y2="50%" spreadMethod="reflect"><stop offset="30%" stop-color="#D0D0D0" stop-opacity="1"></stop><stop offset="100%" stop-color="transparent" stop-opacity="1"></stop></linearGradient><radialGradient id="radialSystem" gradientUnits="objectBoundingBox" r="0.5" cx="0.5" fx="0.5" cy="0.5" fy="0.5" spreadMethod="pad"><stop offset="50%" stop-color="#D0D0D0" stop-opacity="1"></stop><stop offset="100%" stop-color="transparent" stop-opacity="1"></stop></radialGradient><pattern id="patternSystem" patternUnits="userSpaceOnUse" x="0" y="0" width="6" height="8"><path stroke="#D0D0D0" stroke-width="5" fill="none" d="M0 0 L0 10" class="kshaWuzU_10"></path></pattern><linearGradient id="linear0" gradientUnits="objectBoundingBox" x1="0%" y1="50%" x2="100%" y2="50%" spreadMethod="pad"><stop offset="0%" stop-color="#FF8000" stop-opacity="1"></stop><stop offset="100%" stop-color="#FFFF00" stop-opacity="1"></stop></linearGradient><linearGradient id="linear1" gradientUnits="objectBoundingBox" x1="0%" y1="50%" x2="100%" y2="50%" spreadMethod="pad"><stop offset="0%" stop-color="#FFFF00" stop-opacity="1"></stop><stop offset="100%" stop-color="#FF8000" stop-opacity="1"></stop></linearGradient><linearGradient id="linearImport" gradientUnits="objectBoundingBox" x1="0%" y1="50%" x2="100%" y2="50%" spreadMethod="pad"><stop offset="0%" stop-color="#FFFFFF" stop-opacity="0.1"></stop><stop offset="100%" stop-color="#000000" stop-opacity="0.1"></stop></linearGradient><radialGradient id="radial0" gradientUnits="objectBoundingBox" r="0.5" cx="0.5" fx="0.5" cy="0.5" fy="0.5" spreadMethod="pad"><stop offset="0%" stop-color="#FF8000" stop-opacity="1"></stop><stop offset="100%" stop-color="#FFFF00" stop-opacity="1"></stop></radialGradient><radialGradient id="radial1" gradientUnits="objectBoundingBox" r="0.5" cx="0.5" fx="0.5" cy="0.5" fy="0.5" spreadMethod="pad"><stop offset="0%" stop-color="#FFFF00" stop-opacity="1"></stop><stop offset="100%" stop-color="#FF8000" stop-opacity="1"></stop></radialGradient><radialGradient id="radialImport" gradientUnits="objectBoundingBox" r="0.5" cx="0.5" fx="0.5" cy="0.5" fy="0.5" spreadMethod="pad"><stop offset="0%" stop-color="#FFFFFF" stop-opacity="0.1"></stop><stop offset="100%" stop-color="#000000" stop-opacity="0.1"></stop></radialGradient></defs><path id="pageExport" width="180" height="550" fill="none" fill-opacity="0" stroke="none" stroke-width="0" d="M0 0 L180 0 L180 550 L0 550 Z" class="kshaWuzU_11"></path><g id="objectsExport" visibility="visible"><path id="path3" visibility="visible" stroke="#000000" stroke-width="2" stroke-opacity="1" stroke-linecap="round" stroke-linejoin="round" stroke-dasharray="none" marker-start="none" marker-end="none" fill="none" fill-rule="evenodd" fill-opacity="1" data-name="curve" data-title="curve" deg="0" data-sw="2" data-grad="0" data-group="0" data-edit="1" filter="none" d="M101 57 L96 491 L63 535 L63 451 L96 416 L132 447 L131 520 L95 491 " data-centerx="97.5" data-centery="296" class="kshaWuzU_12"></path><path id="path10" visibility="visible" stroke="#000000" stroke-width="2" stroke-opacity="1" stroke-linecap="round" stroke-linejoin="round" stroke-dasharray="none" marker-start="none" marker-end="none" fill="none" fill-rule="evenodd" fill-opacity="1" data-name="curve" data-title="curve" deg="0" data-sw="2" data-grad="0" data-group="0" data-edit="1" filter="none" d="M100 57.25 C100 57.25 94.5 52.75 91.75 50.5 C89 48.25 85.25 43 83.375 40.375 C81.5 37.75 81 33.5 81.25 30.375 C81.5 27.25 84.5 22.25 86.25 19.5 C88 16.75 93.5 13.5 96.25 11.875 C99 10.25 104 15.25 106.75 18 C109.5 20.75 109.5 25.25 109.5 28.5 C109.5 31.75 109.5 36.75 109.5 39.75 C109.5 42.75 107.75 47.75 106.875 50.5 C106 53.25 101 56.75 101 56.75 " data-centerx="95.345" data-centery="34.404" class="kshaWuzU_13"></path><path id="path18" visibility="visible" stroke="#000000" stroke-width="2" stroke-opacity="1" stroke-linecap="round" stroke-linejoin="round" stroke-dasharray="none" marker-start="none" marker-end="none" fill="none" fill-rule="evenodd" fill-opacity="1" data-name="curve" data-title="curve" deg="0" data-sw="2" data-grad="0" data-group="0" data-edit="1" filter="none" d="M100.5 56.25 C100.5 56.25 105.5 60 108.25 61.875 C111 63.75 105.75 65.25 103.125 66 C100.5 66.75 95 63.5 92.25 61.875 C89.5 60.25 94.5 59.25 97.25 58.75 C100 58.25 105 60 108.25 60.625 C111.5 61.25 106.5 64.25 103.75 65.75 C101 67.25 95.5 67.5 92.75 67.625 C90 67.75 88.75 62.5 88.125 59.875 C87.5 57.25 92.25 56.75 95.375 56.5 C98.5 56.25 103.25 56.25 106.125 56.25 C109 56.25 108.75 61.25 108.625 64.5 C108.5 67.75 104.25 70.75 101.125 72.5 C98 74.25 92.25 76 89.375 76.875 C86.5 77.75 81.5 80.25 78.75 81.75 C76 83.25 71 87.5 68.25 89.875 C65.5 92.25 63.75 97.5 62.875 100.125 C62 102.75 61.75 107 61.625 110.125 C61.5 113.25 68 118 71.25 120.375 C74.5 122.75 80.25 123.5 83.125 123.875 C86 124.25 89.75 124.25 93.875 124.25 C98 124.25 100.5 124.25 104.75 124.25 C109 124.25 114.25 124.25 116.875 124.25 C119.5 124.25 124 123 127 121.625 C130 120.25 132 114.5 133 111.625 C134 108.75 133.25 104.25 132.125 101.25 C131 98.25 125.25 97 122.375 96.375 C119.5 95.75 114.5 95.75 110.25 96.25 C106 96.75 101.25 97.5 96.875 98.125 C92.5 98.75 86.5 101 83.5 102.125 C80.5 103.25 75.5 107 71.5 109.875 C67.5 112.75 64 118.5 62.25 121.375 C60.5 124.25 59.25 129 58.375 132.125 C57.5 135.25 57.25 140.25 57.125 144 C57 147.75 58.75 153 59.625 155.625 C60.5 158.25 68 163 71.75 165.375 C75.5 167.75 79.5 169.5 83.25 170.875 C87 172.25 92.5 172.75 95.25 173 C98 173.25 102 173.25 105.5 173 C109 172.75 113 170 116.5 167.125 C120 164.25 124 159.5 126 156.625 C128 153.75 128 148.5 128 145.875 C128 143.25 124.5 140.75 120.5 139.5 C116.5 138.25 110 138.75 106.75 139 C103.5 139.25 96 141.75 92.25 143 C88.5 144.25 81 148 77.25 149.875 C73.5 151.75 69.25 154 65.875 155.875 C62.5 157.75 58.75 161 55.375 165.375 C52 169.75 49 176 47.5 179.125 C46 182.25 45.75 188 45.625 190.875 C45.5 193.75 45.5 200.75 45.5 204.25 C45.5 207.75 46.25 212 47.125 215.875 C48 219.75 51.25 224.5 53.875 228.125 C56.5 231.75 61.5 238 64 241.125 C66.5 244.25 72.75 251 75.875 254.375 C79 257.75 81.75 259.25 86.125 261.25 C90.5 263.25 95.25 263.5 98.875 263.625 C102.5 263.75 110.75 261.25 114.875 260 C119 258.75 125.25 252.75 128.375 249.75 C131.5 246.75 133.25 243 134.375 239.375 C135.5 235.75 135 230.25 134.75 227.5 C134.5 224.75 131 219.25 129.25 216.5 C127.5 213.75 122.5 212.25 117 211.5 C111.5 210.75 106.5 210.75 101.75 210.75 C97 210.75 90 212.5 86.5 213.375 C83 214.25 75.25 217.5 71.375 219.125 C67.5 220.75 59 226 54.75 228.625 C50.5 231.25 46.25 234 41.375 236.875 C36.5 239.75 32 245 29.75 247.625 C27.5 250.25 26 255.5 25.25 258.125 C24.5 260.75 24.5 264.5 24.5 267.875 C24.5 271.25 25.25 274.75 26.375 278.25 C27.5 281.75 31.5 287.75 33.5 290.75 C35.5 293.75 39.75 298 43.125 301.125 C46.5 304.25 51 306.75 55.25 309 C59.5 311.25 68.75 314.5 73.375 316.125 C78 317.75 84 318.75 87 319.25 C90 319.75 95.75 320.25 98.625 320.5 C101.5 320.75 111 320.5 115.75 320.375 C120.5 320.25 124.5 319 128 317.125 C131.5 315.25 136.5 312.25 140.25 310 C144 307.75 145 302.5 145.5 299.875 C146 297.25 142.75 294.5 138.875 293.125 C135 291.75 131.5 291.75 125.75 291.75 C120 291.75 114.25 291.75 111.375 291.75 C108.5 291.75 105 293.25 101.5 294.75 C98 296.25 93.75 297.5 90.625 298.625 C87.5 299.75 81.75 302.25 78.875 303.5 C76 304.75 71 308.25 66.25 311.5 C61.5 314.75 56.75 320.5 54.375 323.375 C52 326.25 49.25 332.25 47.875 335.25 C46.5 338.25 46.5 344.25 46.5 347.25 C46.5 350.25 47.25 354.5 48.625 358.125 C50 361.75 55.25 366.25 57.875 368.5 C60.5 370.75 65.5 372.25 70.25 373 C75 373.75 78 374 82 374.125 C86 374.25 89 374.25 95 374.25 C101 374.25 104.5 374.25 109.75 374.25 C115 374.25 122 374.25 125.5 374.25 C129 374.25 135.75 374.25 139.125 374.25 C142.5 374.25 146.5 369.25 148.5 366 C150.5 362.75 148 357.25 146.75 354.5 C145.5 351.75 139 348.75 135.75 347.25 C132.5 345.75 125.75 345.75 122.375 345.75 C119 345.75 116.75 346 110.875 346.875 C105 347.75 100.75 349 97.375 349.875 C94 350.75 87.75 354.75 84.625 356.75 C81.5 358.75 76.25 363.25 73.625 365.5 C71 367.75 67.75 372 65.125 376.125 C62.5 380.25 61.25 385 60.625 388.125 C60 391.25 62.25 397 63.375 399.875 C64.5 402.75 69.5 407.5 73.5 410.625 C77.5 413.75 82.25 415.25 85.875 416 C89.5 416.75 95.75 417 98.875 417.125 C102 417.25 107 417.25 109.75 417.25 C112.5 417.25 107 414 104.25 412.375 C101.5 410.75 96 411.5 93.25 411.875 C90.5 412.25 95.75 414.5 98.375 415.625 C101 416.75 95.75 413 93.125 411.125 C90.5 409.25 95.75 410.25 98.375 410.75 C101 411.25 96 410.5 93.25 410.125 C90.5 409.75 92 415.25 92.75 418 C93.5 420.75 98.25 420.75 101.125 420.75 C104 420.75 107.25 415.75 108.125 412.5 C109 409.25 103.75 406.75 101.125 405.5 C98.5 404.25 93.25 407.25 90.625 408.75 C88 410.25 93.25 414 95.875 415.875 C98.5 417.75 98.5 417.75 98.5 417.75 " data-centerx="86.875" data-centery="238.5" class="kshaWuzU_14"></path></g><g id="settings" visibility="hidden" data-dn0="primalDraw" data-dn1="#FAFAFA" data-dn2="#D2D2D2" data-dn3="18" data-dn4="#000000" data-dn5="#B3B3B3" data-dn6="1" data-dn7="1" data-dn8="2" data-dn9="round" data-dn10="round" data-dn11="none" data-dn12="none" data-dn13="none" data-dn14="evenodd" data-dn15="10" data-dn16="1" data-dn17="180" data-dn18="550" data-dn19="10" data-dn20="0" data-dn21="1" data-dn22="1" data-dn23="19" data-dn24="path3,path10,path18" data-dn25="2" data-dn26="url(#linear0)" data-dn27="url(#linear1)" data-dn28="url(#radial0)" data-dn29="url(#radial1)" data-dn30="#FF8000" data-dn31="#FFFF00" data-dn32="#000000" data-dn33="1" data-dn34="1" data-dn35="10" data-dn36="" data-dn37="0" data-dn38="65"></g><style data-made-with="vivus-instant">.kshaWuzU_0{stroke-dasharray:20 22;stroke-dashoffset:21;animation:kshaWuzU_draw 2000ms linear 0ms forwards;}.kshaWuzU_1{stroke-dasharray:29 31;stroke-dashoffset:30;animation:kshaWuzU_draw 2000ms linear 71ms forwards;}.kshaWuzU_2{stroke-dasharray:29 31;stroke-dashoffset:30;animation:kshaWuzU_draw 2000ms linear 142ms forwards;}.kshaWuzU_3{stroke-dasharray:32 34;stroke-dashoffset:33;animation:kshaWuzU_draw 2000ms linear 214ms forwards;}.kshaWuzU_4{stroke-dasharray:33 35;stroke-dashoffset:34;animation:kshaWuzU_draw 2000ms linear 285ms forwards;}.kshaWuzU_5{stroke-dasharray:32 34;stroke-dashoffset:33;animation:kshaWuzU_draw 2000ms linear 357ms forwards;}.kshaWuzU_6{stroke-dasharray:28 30;stroke-dashoffset:29;animation:kshaWuzU_draw 2000ms linear 428ms forwards;}.kshaWuzU_7{stroke-dasharray:28 30;stroke-dashoffset:29;animation:kshaWuzU_draw 2000ms linear 500ms forwards;}.kshaWuzU_8{stroke-dasharray:31 33;stroke-dashoffset:32;animation:kshaWuzU_draw 2000ms linear 571ms forwards;}.kshaWuzU_9{stroke-dasharray:48 50;stroke-dashoffset:49;animation:kshaWuzU_draw 2000ms linear 642ms forwards;}.kshaWuzU_10{stroke-dasharray:10 12;stroke-dashoffset:11;animation:kshaWuzU_draw 2000ms linear 714ms forwards;}.kshaWuzU_11{stroke-dasharray:1460 1462;stroke-dashoffset:1461;animation:kshaWuzU_draw 2000ms linear 785ms forwards;}.kshaWuzU_12{stroke-dasharray:788 790;stroke-dashoffset:789;animation:kshaWuzU_draw 2000ms linear 857ms forwards;}.kshaWuzU_13{stroke-dasharray:114 116;stroke-dashoffset:115;animation:kshaWuzU_draw 2000ms linear 928ms forwards;}.kshaWuzU_14{stroke-dasharray:1593 1595;stroke-dashoffset:1594;animation:kshaWuzU_draw 2000ms linear 1000ms forwards;}@keyframes kshaWuzU_draw{100%{stroke-dashoffset:0;}}@keyframes kshaWuzU_fade{0%{stroke-opacity:1;}94.44444444444444%{stroke-opacity:1;}100%{stroke-opacity:0;}}</style></svg>