<svg id="visual" viewBox="0 0 900 600" width="900" height="600" xmlns="http://www.w3.org/2000/svg" xmlns:xlink="http://www.w3.org/1999/xlink" version="1.1"><path d="M0 105L16.7 110.7C33.3 116.3 66.7 127.7 100 130.5C133.3 133.3 166.7 127.7 200 120C233.3 112.3 266.7 102.7 300 100C333.3 97.3 366.7 101.7 400 98.5C433.3 95.3 466.7 84.7 500 86.5C533.3 88.3 566.7 102.7 600 116.5C633.3 130.3 666.7 143.7 700 147.2C733.3 150.7 766.7 144.3 800 140C833.3 135.7 866.7 133.3 883.3 132.2L900 131L900 0L883.3 0C866.7 0 833.3 0 800 0C766.7 0 733.3 0 700 0C666.7 0 633.3 0 600 0C566.7 0 533.3 0 500 0C466.7 0 433.3 0 400 0C366.7 0 333.3 0 300 0C266.7 0 233.3 0 200 0C166.7 0 133.3 0 100 0C66.7 0 33.3 0 16.7 0L0 0Z" fill="#3e3a39" stroke-linecap="round" stroke-linejoin="miter"></path></svg>