<svg id="visual" viewBox="0 0 900 600"  xmlns="http://www.w3.org/2000/svg" xmlns:xlink="http://www.w3.org/1999/xlink" version="1.1"><path d="M0 409L21.5 415.3C43 421.7 86 434.3 128.8 451.3C171.7 468.3 214.3 489.7 257.2 491.3C300 493 343 475 385.8 469.7C428.7 464.3 471.3 471.7 514.2 465.3C557 459 600 439 642.8 445C685.7 451 728.3 483 771.2 495.5C814 508 857 501 878.5 497.5L900 494L900 601L878.5 601C857 601 814 601 771.2 601C728.3 601 685.7 601 642.8 601C600 601 557 601 514.2 601C471.3 601 428.7 601 385.8 601C343 601 300 601 257.2 601C214.3 601 171.7 601 128.8 601C86 601 43 601 21.5 601L0 601Z" fill="#c4ddf2" stroke-linecap="round" stroke-linejoin="miter"></path></svg>