<svg xmlns="http://www.w3.org/2000/svg" xmlns:ev="http://www.w3.org/2001/xml-events" xmlns:xlink="http://www.w3.org/1999/xlink" baseProfile="full" height="100%" version="1.1" viewBox="398,13,231,90" width="100%" data-llp-composed="true" id="test" class="lazy-line-painter" style=""><defs></defs><path d="M0,0 M419.4111633300781,39.18143081665039 " fill="none" stroke="#000000" stroke-linecap="round" stroke-width="0.5" data-llp-id="test-1" data-llp-duration="0.0" data-llp-delay="0" fill-opacity="0" style="" class="rtDtAwBb_0"></path><path d="M 419.4111633300781,39.18143081665039 L 419.25078125,39.92217960357666 C 419.25075311279295,39.92230955950419 419.2350386875422,40.000247338613896 419.23501426814306,40.000378044154964 L 419.00667716604386,41.22255899467601 C 419.00663710690316,41.22277341238663 418.98543911004026,41.35144945034601 418.9854082728704,41.35166538727739 L 418.7582914097373,42.942048639542094 C 418.75825156467357,42.94232765414775 418.74048731321227,43.109821435331305 418.7404677460637,43.11010260059582 L 418.62617933289425,44.75234147144532 C 418.6261596343693,44.752624524491345 418.62336306762694,44.92203853352864 418.6233734130859,44.92232208251953 L 418.6796364386969,46.46438262910787 C 418.6796454589989,46.46462985811273 418.6966896870931,46.611117282231646 418.6967376708984,46.61135997772217 L 418.9581452132061,47.93352338802629 C 418.95818554703317,47.93372739097847 418.9959406738281,48.051344144185386 418.99602661132815,48.05153350830078 L 419.4647218737063,49.08430806831331 C 419.4647923686651,49.084463404639145 419.522410446167,49.166493993123375 419.5225326538086,49.166613006591795 L 420.1847890339773,49.81155981807752 C 420.1849034579005,49.811671251272635 420.2656904856364,49.85554787953695 420.2658462524414,49.85558319091797 L 421.1093235015869,50.04679431915283 C 421.1094714800517,50.046827864964804 421.19694777104195,50.04309657612754 421.1970923554233,50.04305055108869 L 422.2011235386696,49.723440827114985 C 422.20129968449123,49.72338475523358 422.2978989891549,49.673078790372465 422.2980459179308,49.67296661487975 L 423.40079249365044,48.831054336603366 C 423.40098595796195,48.83090663269489 423.5065080106468,48.73175653277267 423.50666746289943,48.731572630995785 L 424.62434155185593,47.44252059474559 C 424.6245376350294,47.442294445265546 424.7322737734538,47.29985524422702 424.7324380118135,47.29960500841931 L 425.7772545299852,45.70770829302351 C 425.77743783112874,45.707429012898 425.8787587878235,45.53553131387914 425.8789143527558,45.53523568531228 L 426.77989388119914,43.823054908319634 C 426.7800465135743,43.82276485265192 426.8652181193034,43.64636504999797 426.8653503417969,43.646065139770506 L 427.5862249710227,42.01096003538347 C 427.58633428296827,42.01071209140973 427.6479805297852,41.86090980529785 427.6480773925781,41.86065673828125 L 428.1789471476456,40.47368841947305 C 428.1790179748618,40.47350337388698 428.21951394144696,40.362170033772784 428.2195785522461,40.36198272705078 L 428.5763603023765,39.327672349163585 C 428.57639863505995,39.32756122270511 428.5988828125,39.260959476470944 428.5989196777344,39.260847854614255 L 428.8059070520614,38.63412418323765 C 428.8059175336001,38.63409244686514 428.81313027954104,38.61548022651672 428.8131439208984,38.61544971466064 L 428.8870118713379,38.45022801399231 C 428.88702483062747,38.450199027729035 428.8900261448713,38.45098550967745 428.890023223422,38.451017126315136 L 428.8616611953508,38.75795792266097 C 428.8616562195564,38.75801177192349 428.8581247706693,38.790152549105706 428.8581179355979,38.79020619408126 L 428.75221680986584,39.62136989832711 C 428.752198230721,39.62151571652084 428.7420130054468,39.70882291857842 428.74199752029307,39.708969097715986 L 428.6016842266006,41.03352012541803 C 428.6016596102333,41.03375250279131 428.58932206101804,41.17292542613748 428.5893054146789,41.1731585100463 L 428.46880548069487,42.86041211403991 C 428.46878434035557,42.86070812344412 428.4613975651135,43.03794077336572 428.46139400051885,43.03823751529904 L 428.43918755891264,44.88685793594561 C 428.4391836630457,44.88718225531766 428.44502826377925,45.0808785872699 428.4450517068058,45.081202081717095 L 428.5728282691711,46.84441333961713 C 428.5728479594457,46.84468504918006 428.59464892578126,47.0058107846578 428.5947021484375,47.00607795715332 L 428.88711543277986,48.47396386151662 C 428.8871519523008,48.47414718591704 428.91576571146646,48.581977343877156 428.9158248901367,48.58215465545654 L 429.24355494937714,49.56410193770168 C 429.24358691058103,49.56419770010254 429.26683044433594,49.61973481051127 429.2668762207031,49.61982479095459 L 429.5278015136719,50.132713317871094" fill="none" stroke="#000000" stroke-linecap="round" stroke-width="0.5" data-llp-id="test-2" data-llp-duration="319.9507220805719" data-llp-delay="0.0" fill-opacity="0" style="" class="rtDtAwBb_1"></path><path d="M 439.3197021484375,38.84250259399414 L 439.11948547363284,38.60345516204834 C 439.1194503479004,38.603413223902386 439.0946653734635,38.58290143557691 439.09461760630484,38.58287477242411 L 438.63610142474886,38.326935601109 C 438.6360209833135,38.3268906995 438.5848642921296,38.308558027649134 438.58477364095233,38.308541615974356 L 437.8342405131023,38.172663561511605 C 437.83410884062374,38.17263972325644 437.75513009891756,38.1711653086177 437.75499762844726,38.17118421572024 L 436.81474573103173,38.30538347531238 C 436.8145807745585,38.305407019042136 436.71917303911005,38.33137587112707 436.7190189061671,38.33143917974543 L 435.7691357631786,38.721594510713956 C 435.7689709641177,38.721662200337256 435.6775199025472,38.77444084739685 435.67737884521483,38.774549674987796 L 434.9097151377543,39.36681234252165 C 434.90959392746436,39.36690585785777 434.84934025573733,39.43383782513936 434.8492599487305,39.43396816253662 L 434.4141591839455,40.14013196394271 C 434.4140836866983,40.14025449515258 434.39014585876464,40.219902574539184 434.39014129638673,40.22004642486572 L 434.36543601989746,40.99899594306946 C 434.36543168563844,40.99913260087967 434.3820127364178,41.07675859785563 434.3820725256961,41.0768815587644 L 434.7892391243317,41.91424866473021 C 434.7893105570683,41.91439557124003 434.8435039842339,41.994479305038624 434.8436138004176,41.994600237103384 L 435.6446388809388,42.87670716944794 C 435.6447794116547,42.87686192505011 435.73449166699226,42.96353167323772 435.7346511772641,42.96366678301411 L 436.8210266872812,43.8838580065091 C 436.8212172794759,43.884019443565855 436.93675189384606,43.978653682499676 436.93694770504385,43.97880874791427 L 438.1517317236311,44.94081188972726 C 438.15194484363434,44.940980662208275 438.2775307756262,45.04417009801525 438.2777376754624,45.04434644070415 L 439.4418969656081,46.036570423717016 C 439.4420887096095,46.036733848944436 439.5513552347819,46.14016308148702 439.55152893066406,46.14034557342529 L 440.4993180551775,47.13613126652459 C 440.4994589798569,47.13627932770812 440.5740917561849,47.23231189028422 440.57420043945314,47.23248500823975 L 441.16906845640017,48.1800304453567 C 441.1691505451067,48.1801612017213 441.2020989685059,48.264648072560625 441.20212707519534,48.26479988098144 L 441.35509822562193,49.091019874466085 C 441.3551223488868,49.091150167816664 441.3447913411458,49.1656316947937 441.3447326660156,49.16575050354004 L 441.0270068359375,49.80909986495972 C 441.0269510945638,49.80921273326874 440.97723719722273,49.86097593091701 440.9771266713812,49.86103618367036 L 440.20703504450654,50.28084878336565 C 440.2068999407124,50.28092243469893 440.1210008399951,50.309746240047254 440.120848655827,50.30976898940076 L 438.9861144542757,50.479395500556464 C 438.9859153781,50.47942525959351 438.8664387260301,50.483040575979715 438.8662382147407,50.48302290830182 L 437.53085463534643,50.36535807748296 C 437.53062035752544,50.36533743453019 437.3930977886562,50.339358745285246 437.39287212477524,50.33929250298971 L 436.0664412779993,49.949926585028734 C 436.0662163484138,49.94986055828128 435.937195409139,49.89698733266194 435.9369888305664,49.89687652587891 L 434.805914038044,49.290178756766586 C 434.80575929447315,49.290095753785856 434.71812236531576,49.23294638125102 434.7179840087891,49.232838249206544 L 433.95379464211373,48.63558880561763 C 433.95371316599545,48.63552512825125 433.9087252960205,48.5934524307251 433.90865631103514,48.59337539672852 L 433.51544189453125,48.15428161621094" fill="none" stroke="#000000" stroke-linecap="round" stroke-width="0.5" data-llp-id="test-3" data-llp-duration="164.74062192245992" data-llp-delay="319.9507220805719" fill-opacity="0" style="" class="rtDtAwBb_2"></path><path d="M 445.597412109375,39.07978820800781 L 445.5486770629883,39.31904945373535 C 445.54866851298016,39.31909142939249 445.54341823844294,39.34416410685013 445.54340922900445,39.34420598630154 L 445.42702397707524,39.885210902037244 C 445.42700355860995,39.88530581518036 445.4154230763608,39.942192076614695 445.4154047641162,39.942287418526554 L 445.2384399159402,40.863647268875546 C 445.2384088694756,40.86380891095455 445.2220025732211,40.96083602189422 445.2219787491297,40.96099888520297 L 445.0363217157768,42.230164545395404 C 445.03628914436746,42.23038720603754 445.0213931436271,42.36404888040839 445.021375895636,42.36427324877752 L 444.90429450278964,43.887312135034094 C 444.9042739621944,43.8875793348387 444.89897113372854,44.04759614441291 444.89897393911156,44.047864117884465 L 444.9159753082837,45.67185483766912 C 444.91597829098004,45.67213974832172 444.9269271700836,45.841925284960894 444.92696080571204,45.84220821891245 L 445.1112233332742,47.392175545296986 C 445.11125257255395,47.39242149833366 445.13945213826497,47.537417609532675 445.13951721191404,47.53765659332275 L 445.4952968585769,48.84426179502322 C 445.49534732575404,48.844447136362405 445.53906289164223,48.94965684890747 445.5391586303711,48.9498233795166 L 446.06292228883956,49.86087246217243 C 446.062995445826,49.8609997134704 446.12253333536785,49.921576873779294 446.12265930175784,49.921652221679686 L 446.8047673034668,50.32966110229492 C 446.80488697153726,50.32973268280029 446.8818527764786,50.34464496555488 446.881990519127,50.344623258904875 L 447.7220231099407,50.21224382774017 C 447.72217048407947,50.21222060327856 447.8028893461618,50.17985173860523 447.8030119347725,50.17976670599435 L 448.77318740093784,49.50681224124454 C 448.77335760716,49.506694179057746 448.86547457350576,49.42517056953495 448.8656124507831,49.4250159775093 L 449.88251402097666,48.284836270982396 C 449.8826924247609,48.28463623945494 449.98013169722304,48.15790813373443 449.9802791772932,48.157684325443434 L 450.9492748841576,46.68718547817403 C 450.94944488340445,46.68692749592012 451.04277435847996,46.5277693960698 451.0429164979458,46.52749507698642 L 451.8837900095347,44.904668864511194 C 451.88393445624774,44.90439009260442 451.963644337972,44.734554377237956 451.96376647949216,44.73426513671875 L 452.6293908464334,43.15801541260589 C 452.62949278742707,43.15777400848802 452.68621594238283,43.01176805877686 452.6863037109375,43.01152114868164 L 453.16747659304104,41.657887805190896 C 453.16754028597313,41.657708624526784 453.2033922729492,41.54981545511882 453.2034484863281,41.5496337890625 L 453.5144549722039,40.54454704856073 C 453.51448633811685,40.54444568262575 453.5324861195882,40.483604884465535 453.53251495361326,40.48350276947021 L 453.6955374938169,39.90616242616172 C 453.6955419318258,39.90614670906165 453.69862693278,39.896891571680705 453.6986328125,39.89687633514404 L 453.730471496582,39.814370489120485 C 453.7304770823161,39.814356014410656 453.7314485378178,39.81461416887338 453.73144620109883,39.81462950697606 L 453.6670547929651,40.237291381354666 C 453.6670434962268,40.237365532560695 453.6607881062972,40.28177838534996 453.66077848199893,40.28185277211312 L 453.5408285359164,41.20895290624482 C 453.54080749206616,41.20911555539116 453.53032112934227,41.30660539833386 453.5303071017452,41.306768802173956 L 453.41401840684506,42.66138565080206 C 453.4139980053196,42.66162330288076 453.4058461500797,42.80397107819521 453.4058392878752,42.804209505632606 L 453.3590309780656,44.43056520398036 C 453.35902276608147,44.43085052954147 453.3600766162964,44.601438367134286 453.3600883528633,44.601723569458095 L 453.42948921281703,46.28818663913441 C 453.42950086010245,46.28846967189084 453.4444942779541,46.45700905164083 453.4445327758789,46.457289695739746 L 453.6546712461027,47.98916763261746 C 453.65470224510653,47.9893936107073 453.6834614257813,48.122316933314 453.68352661132815,48.12253551483154 L 454.0410136488492,49.32126840743363 C 454.0410605507814,49.32142567995816 454.08242655944827,49.409197712580365 454.08251800537107,49.40933399200439 L 454.5827880323756,50.15487309330584 C 454.5828579381531,50.154977272024766 454.63902086385093,50.198926270167036 454.63913879394534,50.19896907806397 L 455.2777302551269,50.43077383995056 C 455.2778422887166,50.430814507452645 455.3447908152912,50.430684276203266 455.34490268981716,50.430643173145164 L 456.13733943380726,50.139499382778354 C 456.13747845779744,50.13944830492039 456.21224078070503,50.09486213875364 456.2123517979286,50.094764098999 L 457.11621603960344,49.29655796813354 C 457.1163746122774,49.29641793197023 457.2023996448076,49.204444145489006 457.2025287812725,49.20427657701526 L 458.140686741798,47.98691556530096 C 458.1408513309139,47.98670199319364 458.23105365609354,47.85342136977352 458.23119074699497,47.85318918728746 L 459.11538949340445,46.355675778639274 C 459.11554461599155,46.35541305698864 459.2006176932327,46.19424616793511 459.20074709598754,46.19396986988992 L 459.95544433018114,44.58255618125792 C 459.95557250402845,44.58228250715031 460.0257753397624,44.415905862172444 460.0258819580078,44.415623092651366 L 460.60699970947087,42.87440106645393 C 460.60708839696275,42.87416585230745 460.6559159851074,42.732062063217164 460.65599060058594,42.73182201385498 L 461.0650520529488,41.41580900038045 C 461.06510620886604,41.415634772543896 461.0946529083252,41.31064767138163 461.0946975708008,41.310470771789554 L 461.34182606097664,40.33164170935292 C 461.3418508863789,40.331543380644824 461.35500554911295,40.2723669274648 461.35502471923826,40.27226734161377 L 461.4634787858238,39.708865155370034 C 461.4634815046497,39.708851031487875 461.46372413635254,39.70036539904277 461.4637222290039,39.7003511428833 L 461.4533939361572,39.62315403938293 C 461.45339212417605,39.623140496031446 461.45188775628685,39.62306156293662 461.4518845369373,39.623074842297825 L 461.35037437821404,40.04178988103091 C 461.35035656941426,40.04186333980963 461.3413931150387,40.086133101927054 461.34138094573024,40.0862077025534 L 461.1930196698451,40.995696035762435 C 461.1929936415511,40.99585559511914 461.18081705172386,41.091702550678576 461.1808023556372,41.09186354970167 L 461.0619499688561,42.393918891596414 C 461.06192911756017,42.39414732235815 461.054978939012,42.53102914001337 461.05497654556365,42.531258507972886 L 461.0390464347001,44.05786633116036 C 461.03904363994377,44.05813415709426 461.04522198005316,44.21799068398304 461.0452454381543,44.21825749526282 L 461.1805976071645,45.75774635757253 C 461.1806196996133,45.75799763599 461.20384760538735,45.90669746653239 461.2039031982422,45.90694351196289 L 461.50772469293076,47.251610748450844 C 461.5077682188567,47.25180338750874 461.54600785827637,47.362794453938804 461.5460922241211,47.362973022460935 L 462.00847856026985,48.341658709415256 C 462.0085402235325,48.341789225712645 462.05960918680825,48.40906270217896 462.0597183227539,48.40915718078613 L 462.65189967896816,48.92180651373199 C 462.65199932408126,48.92189277615854 462.7211939086914,48.94840096473694 462.72132568359376,48.94840335845947 L 463.43488677978513,48.961365365982054 C 463.4350119659424,48.961367640018466 463.5048698928765,48.94333958068332 463.5049783452709,48.94327701213409 L 464.3388628088651,48.46219089681032 C 464.339009104385,48.46210649573745 464.4179018341296,48.40061181965679 464.41801939389313,48.40049055291667 L 465.3074945976243,47.4829677954681 C 465.3076506459057,47.482806826563284 465.3930781597886,47.3799922400234 465.39320782225604,47.37980934743477 L 466.266825308105,46.14754710036735 C 466.26697857433055,46.14733091400821 466.35223278604815,46.013961035276594 466.35236465096546,46.0137311685296 L 467.13776280165433,44.6446261653585 C 467.13789583678164,44.644394258702974 467.2127139231364,44.50320394007365 467.2128311157227,44.502963638305665 L 467.8523809993291,43.19157549810092 C 467.85247582552273,43.19138105830989 467.9063979441325,43.07382904370626 467.90648345947267,43.07363033294678 L 468.37661400413725,41.981194783950535 C 468.3766716937849,41.98106073135038 468.4103926035563,41.90057154337565 468.4104476928711,41.90043640136719 L 468.7170888506976,41.14820156031364 C 468.7171134104857,41.14814131162301 468.7329960378011,41.11264772288005 468.73302459716797,41.112589263916014 L 468.89211660950235,40.78693938969252 C 468.8921289307649,40.7869141689567 468.89894886271156,40.787158106486004 468.8989593505859,40.787184143066405 L 468.95575119018554,40.928172225952146 C 468.9557611536662,40.92819696070353 468.95879791324785,40.94356559532847 468.9587981061538,40.94359226069289 L 468.963787683628,41.63330098144285 C 468.96378855899246,41.633421982972806 468.9635862758042,41.705778868953836 468.96358472390733,41.705899863698065 L 468.94732779576566,42.97338283803354 C 468.94732494367304,42.97360520346763 468.9458930730163,43.10658267998673 468.94589113624386,43.10680505527678 L 468.93000482292547,44.930831204301924 C 468.93000203585297,44.931151208889474 468.928176356719,45.12251243521281 468.92817303784125,45.122832434726675 L 468.904417990271,47.4132463046587 C 468.90441382271877,47.413648131653424 468.9003192532223,47.6539133670579 468.9003097265621,47.654315102723395 L 468.83846031054685,50.262481647164975 C 468.8384494597721,50.26293922024295 468.8280986384212,50.536421748925875 468.8280748710643,50.536878833134466 L 468.6861791341782,53.26576033875145 C 468.6861542401893,53.266239089892785 468.66434005717736,53.5520034470264 468.66429199403245,53.55248042952096 L 468.39618998884185,56.21314617498172 C 468.3961448885861,56.21359375352768 468.3589750874837,56.479821657180786 468.35889587402346,56.48026447296142 L 467.92745072689377,58.8921111330937 C 467.9273838216387,58.89248514405874 467.87410724894204,59.11293741734823 467.8739959716797,59.11330070495605 L 467.2656757114808,61.099287845680514 C 467.2655891776964,61.09957035309351 467.19725504557294,61.261510577519736 467.1971130371094,61.261769676208495 L 466.41922338026654,62.681052619368394 C 466.41911818498204,62.68124455131099 466.3377204437256,62.780919552485145 466.3375534057617,62.781060981750485 L 465.427461565403,63.55162605207397 C 465.4273214835574,63.551744657881024 465.33095765686033,63.59383673922221 465.33077545166014,63.593858909606936 L 464.3441342926025,63.713911542892454 C 464.34396119766234,63.71393260475794 464.2452144865181,63.69764484097766 464.2450573248993,63.69756930498581 L 463.2490753760106,63.21887428434109 C 463.24890064233534,63.21879030275852 463.1576321349178,63.1508159541733 463.1575016227488,63.15067259679739 L 462.261657734946,62.16665838569924 C 462.26150056935165,62.16648575162712 462.18345634900413,62.05235046217136 462.18335249713914,62.052141372867375 L 461.5078141702671,60.69205180130938 C 461.50769565477117,60.69181318910385 461.455193704902,60.5426568710012 461.4551366285924,60.542396632644525 L 461.1034697220546,58.93897800881729 C 461.1034080261061,58.93869670730433 461.0873559077734,58.768512537021195 461.08736391770736,58.76822466070711 L 461.1354396680533,57.0403864832795 C 461.1354481023955,57.04008335377468 461.16194799788184,56.86200480409268 461.16202819195263,56.861712353163774 L 461.64177297942183,55.11218389951854 C 461.641857145174,55.11187696470211 461.7116207154954,54.93603978806005 461.7117698727209,54.93575863867366 L 462.6110844042806,53.24062299968271 C 462.6112421787598,53.24032560746534 462.7209972090723,53.07256409631423 462.7212065082731,53.07230041324347 L 463.9843604963121,51.480931114106994 C 463.9845821022749,51.48065192651066 464.1277479654214,51.32338897645652 464.1280051750544,51.3231422010092 L 465.6626960351199,49.85070892126872 C 465.66296527913045,49.850450599640695 465.8301159064557,49.7029345790192 465.8304056946436,49.70269953602976 L 467.5194118252595,48.332771199640845 C 467.51970814212456,48.33253086133622 467.699168256431,48.19169164174334 467.69947214061716,48.19146094586873 L 469.4162937974605,46.88812338603855 C 469.4165949942425,46.8878947303263 469.5956459892697,46.749778385921566 469.5959436252471,46.74954511406056 L 471.21466164225035,45.48087669705247 C 471.21493334709515,45.48066374868729 471.3735951283773,45.34872950871785 471.3738540649414,45.348501205444336 L 472.78334200177375,44.105761652425386 C 472.7835635033694,44.10556635540526 472.91045994059243,43.9830198097229 472.91066284179686,43.982805252075195 L 474.01890213175676,42.810898876164075 C 474.01906312367436,42.81072863544405 474.10931958007814,42.70384400177002 474.1094604492188,42.70365676879883 L 474.88239176445114,41.67633292742546 C 474.8824918404056,41.6761999137774 474.9364293874105,41.59283531188965 474.93650970458987,41.592689514160156 L 475.3805979459857,40.78654744338489 C 475.3806436782556,40.78646442676046 475.4026439666748,40.734554097493486 475.40267181396484,40.73446350097656 L 475.55903517166104,40.225761377271525 C 475.5590430589795,40.2257357171956 475.55730891418455,40.211158385594686 475.55729522705076,40.21113529205322 L 475.483179397583,40.086083765029905 C 475.4831663948059,40.08606182616552 475.47446332679084,40.08541468920274 475.47444722231705,40.08543446372946 L 475.2277659402174,40.38833201066206 C 475.2277226627995,40.38838515058257 475.20629562533543,40.422925171273185 475.2062672404207,40.42298754981652 L 474.8530333937593,41.199252442981546 C 474.85297142290904,41.19938862980491 474.82184507840867,41.28303581765663 474.8218029477723,41.28317938731438 L 474.46793493498626,42.489064555608394 C 474.46787285287877,42.48927611440985 474.438195418136,42.617511881116876 474.4381582446089,42.61772920447832 L 474.1817391500234,44.11680297938896 C 474.18169416421733,44.11706597478806 474.16398966327694,44.275365831407 474.16397543670524,44.27563226696648 L 474.0791700324247,45.863869818325085 C 474.07915566438044,45.86413890338705 474.08168189493813,46.024877030054725 474.0817047119141,46.025145530700684 L 474.2061700215389,47.48980132746318 C 474.2061886597158,47.49002065374712 474.23003988138834,47.61882502619425 474.23010101318357,47.619036483764646 L 474.5648601467062,48.77698306058902 C 474.5649057870375,48.777140932503755 474.6071233774821,48.864320950826006 474.60721893310546,48.864454650878905 L 475.12817990959076,49.593375751021625 C 475.1282589298466,49.59348631502619 475.19030577087403,49.63977489789327 475.19043426513673,49.63981914520264 L 475.88623069763185,49.8794183254242 C 475.8863527671814,49.87946036036809 475.9597138740136,49.88057027725732 475.95983715933636,49.880531954410046 L 476.831126318416,49.60969451306474 C 476.83127917616326,49.609646997724155 476.9147100540168,49.56598728033412 476.9148362293059,49.565888776553 L 477.90289208001997,48.79452349613966 C 477.9030654231517,48.794388168897484 477.99760049248374,48.70392740853439 477.99774332015244,48.70376019142753 L 479.00847939012874,47.520429518055266 C 479.00865671224625,47.52022191618274 479.1059504875076,47.3895641772345 479.10609856263176,47.38933479670251 L 480.0375543788152,45.94643321627556 C 480.03771779211627,45.94618007564741 480.1277822830975,45.79037595171656 480.1279200888298,45.790108008318185 L 480.897699915227,44.29338200679013 C 480.897822714826,44.29314324065666 480.96587724812827,44.147841454188026 480.9659820556641,44.14759426116943 L 481.5396265289922,42.79462943979188 C 481.5397057239281,42.794442655176496 481.5840388946533,42.681557297388714 481.58410797119143,42.681366539001466 L 481.96546873669433,41.628219311264154 C 481.9655099883663,41.628105392665574 481.98865859476723,41.55946946144104 481.9886947631836,41.559353828430176 L 482.19207179465457,40.909142929843696 C 482.19208107112684,40.90911327229923 482.1971298421224,40.89123725128174 482.1971374511719,40.89120712280273 L 482.23834045410155,40.72806140899658 C 482.2383476826986,40.728032786941526 482.23827389890954,40.728013813495124 482.238266423544,40.72804237209384 L 482.1525810457866,41.05539149085811 C 482.15256601326416,41.05544892052807 482.14441125643157,41.08998893047168 482.14439901551975,41.09004701922962 L 481.96828409872523,41.925793320810115 C 481.9682532013714,41.925939942968284 481.95207849241575,42.01404259945188 481.952055293753,42.0141906350077 L 481.75560905130874,43.26775550648183 C 481.75557458705566,43.267975430143494 481.73914656149225,43.400010062969955 481.739126082516,43.400231726709045 L 481.5998881278563,44.90733858981446 C 481.5998637001449,44.90760299452728 481.5920871283155,45.06605228293005 481.5920855474254,45.066317808947666 L 481.5827795194466,46.62935660647504 C 481.58277794074246,46.62962176534132 481.59149909973144,46.78765338071187 481.5915298461914,46.78791675567627 L 481.75933356511007,48.22532771459306 C 481.75935840211963,48.22554046905353 481.78967563883464,48.34896910858154 481.7897521972656,48.349169158935545 L 482.2081561527434,49.44247604007251 C 482.2082160830806,49.442632640528124 482.26312245178224,49.523301226933796 482.2632461547852,49.52341442108154 L 482.9330979156494,50.13636073112488 C 482.9332154335022,50.136468265565235 483.01569406412045,50.17384786038538 483.0158523945306,50.173865341312315 L 483.90005714609373,50.27148852463397 C 483.90021226973437,50.27150565150824 483.99179895574383,50.265048827854265 483.9919501420898,50.265010106252056 L 484.8196093058444,50.0530313810334 C 484.8197231407103,50.05300222583181 484.8851656545003,50.02853188006083 484.885270690918,50.028479194641115 L 485.4839782714844,49.728172302246094" fill="none" stroke="#000000" stroke-linecap="round" stroke-width="0.5" data-llp-id="test-4" data-llp-duration="883.5434824326998" data-llp-delay="484.6913440030318" fill-opacity="0" style="" class="rtDtAwBb_3"></path><path d="M 491.0023193359375,34.184261322021484 L 490.982373046875,34.31719551086426 C 490.98236954752605,34.317218832651776 490.9801433304454,34.331143901774574 490.9801393842523,34.33116715212459 L 490.9072482411853,34.76063031805545 C 490.90723545326546,34.76070566247052 490.89960941760404,34.80576520056194 490.89959670038786,34.80584055694316 L 490.75307309673815,35.674072125808586 C 490.75304739084277,35.67422444713645 490.7379052466108,35.76535081636092 490.73788030988334,35.76550326549869 L 490.51743143004495,37.11320382843607 C 490.51739275480287,37.11344026713132 490.4948737420078,37.25492750022026 490.49483710282584,37.255164262973466 L 490.2243497042624,39.00305648432787 C 490.2243022503328,39.00336313208601 490.19643563553905,39.186816087608086 490.1963898900881,39.187122994885144 L 489.8975926268286,41.1917606678717 C 489.8975402062561,41.192112358691524 489.86607047632,41.40240517793102 489.8660176469596,41.402756807576885 L 489.5534666496854,43.48308099971864 C 489.55341222716174,43.483443233381685 489.5205130666097,43.70000511105855 489.5204574584961,43.70036716461182 L 489.21762931643934,45.67202197806399 C 489.217582189421,45.672328812864485 489.1893478393555,45.855807961146034 489.1893005371094,45.85611476898193 L 488.9300892440466,47.53738917838267 C 488.9300545390144,47.537614279233374 488.9102244873047,47.67236050415039 488.9101928710937,47.672586059570314 L 488.7355697322544,48.918377197757174 C 488.7355511013761,48.9185101136084 488.7255093383789,48.99813245900472 488.7254943847656,48.99826583862305 L 488.64219330730646,49.74127461574901 C 488.64218685891234,49.74133213257347 488.63944820658367,49.77581594276428 488.63944549560546,49.77587375640869 L 488.6239929199219,50.105411529541016" fill="none" stroke="#000000" stroke-linecap="round" stroke-width="0.5" data-llp-id="test-5" data-llp-duration="82.24674504082972" data-llp-delay="1368.2348264357315" fill-opacity="0" style="" class="rtDtAwBb_4"></path><path d="M 495.81182861328125,40.084320068359375 L 495.62860107421875,39.97394142150879 C 495.6285689290365,39.973922056833906 495.6079394905389,39.96600910420206 495.6079026409436,39.96600200415242 L 495.1398967799964,39.875828290820415 C 495.139814673705,39.875812470870706 495.0902778242724,39.871926480910105 495.09019425548206,39.87192930423787 L 494.2646705404108,39.89981919012644 C 494.26452571168886,39.89982408308888 494.17883660055793,39.91027833966948 494.17869484362393,39.910308410775876 L 493.05186076757184,40.14934537659348 C 493.05166307738307,40.14938731290327 492.9355400678764,40.18194094264405 492.9353493867959,40.18200788135011 L 491.67338337510154,40.62502179604505 C 491.6731619775556,40.62509951778446 491.54370808900273,40.678684239542854 491.54349653039964,40.678785730919685 L 490.3313866910532,41.26027329352954 C 490.33119434088513,41.26036557001042 490.2199870147705,41.32239230600993 490.21980743408204,41.32250747680664 L 489.23614452950153,41.95336172610194 C 489.23601137276904,41.95344712374182 489.16272182210287,42.012395113627115 489.16260986328126,42.01250686645508 L 488.5470949953264,42.626889245215274 C 488.5470194939423,42.62696460768402 488.5162368621826,42.68032027053833 488.5162094116211,42.68042335510254 L 488.3675646209717,43.23862627029419 C 488.36753854293823,43.23872420063019 488.37703279861694,43.29288882594973 488.37709063001387,43.29297204820677 L 488.737094887946,43.81103608409979 C 488.73715804658775,43.81112697252714 488.7848221514302,43.85463870056577 488.7849184045104,43.854693336312465 L 489.6666659641708,44.35519613837324 C 489.6668206567252,44.35528394588238 489.7631097492299,44.39956724442259 489.7632770937742,44.39962754159085 L 491.08297739228635,44.875138657047806 C 491.0832089186545,44.87522208005051 491.2235299524593,44.91913975398554 491.22376772720753,44.91920321283545 L 492.8546255811846,45.35445701733123 C 492.8549116965976,45.354533377647805 493.0272596029691,45.394849389140106 493.0275499019587,45.394907864982365 L 494.8139965136526,45.75475744769248 C 494.8143099253389,45.75482057919822 495.00280762135367,45.7860746116091 495.0031246367444,45.78611600863985 L 496.79469149969293,46.02006537101835 C 496.7949976468424,46.02010534883435 496.9788036549886,46.03500867335001 496.97911224365237,46.03501853942871 L 498.65611427664555,46.08863500682662 C 498.65638745447995,46.08864374076383 498.81924601745607,46.08184566370646 498.8195175170898,46.081814193725585 L 500.2965104339023,45.91061345140093 C 500.2967456172216,45.91058619090537 500.43404265848795,45.879514486312864 500.4342666625977,45.87943782806396 L 501.65277783174326,45.46244131573059 C 501.65297220593044,45.46237479737591 501.7620685780843,45.40821550750732 501.76223907470705,45.40810089111328 L 502.6900845976918,44.784356523770406 C 502.69023121511356,44.784257960174735 502.76839563496907,44.71463680839538 502.76851043701174,44.71450252532959 L 503.39456907924574,43.98220654947783 C 503.3946634559152,43.982096157813885 503.4421733347575,43.9101839427948 503.4422378540039,43.91005382537842 L 503.79593375227597,43.196747346735705 C 503.79598063163036,43.19665280408659 503.8171239929199,43.137647241592404 503.81714782714846,43.13754444122314 L 503.9491621718964,42.56814806327187 C 503.94917497442236,42.56809284418238 503.95176044209796,42.53467948659261 503.9517562866211,42.53462295532226 L 503.92851655626816,42.21846875335466 C 503.9285150679751,42.21844850655799 503.9220051472982,42.212646025339765 503.92198486328124,42.212646865844725 L 503.8121469116211,42.21719820022583 C 503.81212764180503,42.21719899870555 503.8041207582186,42.222749329282756 503.8041132491598,42.22276709378156 L 503.6449725081611,42.599253093153436 C 503.64494458873287,42.59931914332876 503.63172374415626,42.63994792500006 503.63170744671305,42.640017757037675 L 503.4544582971403,43.3995031003763 C 503.4544272007983,43.39963634341899 503.43928570316143,43.47996674989592 503.43926615904314,43.48010217042004 L 503.28198985824514,44.569864254639164 C 503.28196226591166,44.57005544096973 503.26884668689195,44.684771833715196 503.26883041441266,44.68496431425 L 503.1582840500175,45.992572266615824 C 503.1582646559185,45.99280167151974 503.15015473860564,46.13019168072268 503.15014700923535,46.13042177417729 L 503.1047747008415,47.48109729299251 C 503.1047672487137,47.48131913329435 503.1037739461263,47.6140055586497 503.10377807617186,47.61422748565674 L 503.12643886704,48.831899641018424 C 503.1264418019364,48.83205734696764 503.13023317464194,48.92628356997172 503.1302429199219,48.92644100189209 L 503.18419718154746,49.798055061747846 C 503.18420249432774,49.79814088803534 503.18836875915525,49.84938458124797 503.1883773803711,49.849470138549805 L 503.2375183105469,50.3371467590332" fill="none" stroke="#000000" stroke-linecap="round" stroke-width="0.5" data-llp-id="test-6" data-llp-duration="217.41851895193335" data-llp-delay="1450.4815714765612" fill-opacity="0" style="" class="rtDtAwBb_5"></path><path d="M 504.0511169433594,33.75 L 504.08202209472654,33.75557727813721 C 504.08202751668296,33.75557825660706 504.0851112596579,33.75662886537728 504.08511615122313,33.756631400649134 L 504.129876840276,33.779830623987536 C 504.1298846930285,33.77983469402672 504.13438360832237,33.782590262233704 504.13439080210935,33.7825954081417 L 504.1780789897167,33.813846735807985 C 504.17808496176923,33.81385100777668 504.18134881591794,33.81675158246358 504.1813537597656,33.81675701141357 L 504.20953369140625,33.84770202636719" fill="none" stroke="#000000" stroke-linecap="round" stroke-width="0.5" data-llp-id="test-7" data-llp-duration="1.1713551048359514" data-llp-delay="1667.9000904284944" fill-opacity="0" style="" class="rtDtAwBb_6"></path><path d="M 522.3108520507812,43.457054138183594 L 522.234487915039,43.79287223815918 C 522.2344745178223,43.792931153615314 522.2268807559956,43.828252414098614 522.2268687560156,43.828311629948445 L 522.0808655325274,44.548788246902696 C 522.0808399179267,44.54891464630918 522.0664041914966,44.62466952665823 522.0663815260758,44.62479648805559 L 521.8534319913429,45.81764309893891 C 521.8533946317754,45.81785237027415 521.8324021870121,45.94322243958228 521.8323693377342,45.94343246613769 L 521.5775590186445,47.57259867866577 C 521.5775143150797,47.57288449729955 521.5522222341255,47.74401695756574 521.5521823487907,47.744303488297405 L 521.2736906604083,49.74494928238606 C 521.2736418022173,49.74530027287625 521.2449526526701,49.955264737583114 521.2449055605282,49.95561596938292 L 520.9452744528311,52.19038314679678 C 520.9452218859701,52.190775211213875 520.9123920346921,52.42503425107558 520.9123348027193,52.425425661708196 L 520.5769944740466,54.718825032383165 C 520.5769368004092,54.71921946356998 520.5391130167643,54.95455330721537 520.5390441894531,54.954945945739745 L 520.1640080831338,57.09441094602855 C 520.1639504845755,57.09473952799068 520.1248473510742,57.29029991531372 520.1247741699219,57.290625381469724 L 519.7234291816876,59.07556872233497 C 519.7233765564205,59.075802768162866 519.6859976806641,59.21416586240132 519.6859252929687,59.21439456939697 L 519.2852546685766,60.4803027372533 C 519.2852148711137,60.480428476277716 519.2542021077473,60.55251697222392 519.2541381835938,60.552632331848145 L 518.8969553163299,61.197216248846566 C 518.8969313669681,61.197259468650216 518.8750614013671,61.20879769833883 518.8750122070312,61.20879306793213 L 518.6086248779297,61.183719415664676 C 518.6085781433105,61.18371501677831 518.5911107255686,61.168806131846644 518.5910990407305,61.168760668241596 L 518.4134630330913,60.47761089260398 C 518.4134318688793,60.477489638257374 518.4025170470939,60.40383530952697 518.402511706885,60.403710228325984 L 518.3459343011646,59.078524248904095 C 518.3459243753039,59.07829176013577 518.346183336523,58.93927501606665 518.3461941284747,58.9390425658916 L 518.4318330218534,57.09444797027456 C 518.4318480462207,57.09412435718761 518.4471697689224,56.90110677381508 518.4472059877749,56.90078484314493 L 518.6940979702872,54.70628954733303 C 518.6941412846701,54.70590454815832 518.7282693918196,54.47690096763996 518.7283402182634,54.47652006855207 L 519.163324359546,52.13720929657946 C 519.1634006725533,52.13679889118087 519.2200943576398,51.893958186094295 519.2202076556196,51.893556415221695 L 519.8653845754833,49.60566659730751 C 519.8654971933046,49.60526723837394 519.946801147461,49.3713012193044 519.9469604492188,49.370918083190915 L 520.8111176294337,47.29253660131687 C 520.8112638388982,47.292184953433576 520.9147050374349,47.09009322611491 520.9149047851563,47.089768981933595 L 521.9997495833503,45.32877460833214 C 521.9999286407287,45.328483950132494 522.1238734130859,45.167671568552656 522.1241088867188,45.1674243927002 L 523.4032881489732,43.82467437514012 C 523.4034982171224,43.82445386733529 523.5443860880533,43.71165994898478 523.5446472167969,43.711503219604495 L 524.9614826199254,42.86111910739467 C 524.9617212813746,42.860975862876536 525.1144039204916,42.80044752756755 525.1146759033203,42.80038833618164 L 526.5874629211426,42.47986698150635 C 526.5877213048299,42.47981074968974 526.7432987173531,42.47382140019984 526.7435606594602,42.47385760074725 L 528.1752578669574,42.67171896493726 C 528.175509041906,42.671753677457296 528.3180608259123,42.7167501264806 528.3182864127831,42.71686590375663 L 529.5978753802094,43.3735855284642 C 529.598099869502,43.37370074243344 529.718802719766,43.4612652482619 529.7189819189359,43.46144289217168 L 530.7318475334469,44.46551789961347 C 530.7320252291686,44.46569405312354 530.8205723044761,44.58426332118193 530.8206907528188,44.58448372040783 L 531.4687278047793,45.790299363901575 C 531.4688383523962,45.79050506208717 531.5136356506348,45.920837233225505 531.5136749267579,45.92106742858887 L 531.7266462264998,47.169281405091056 C 531.7266825685052,47.16949440373993 531.7236122843425,47.29626690038045 531.7235656738281,47.29647789001465 L 531.4711697387695,48.43898675918579 C 531.4711254587809,48.43918719933828 531.4208129979653,48.548034028332 531.4206890088542,48.548197624396884 L 530.7206804465364,49.471816199884394 C 530.7205576380168,49.471978238230975 530.6314395170574,49.55125141251613 530.6312642716609,49.551354501842745 L 529.5504169733487,50.18717046251889 C 529.5502273510157,50.18728200917866 529.4292639160253,50.23466228696054 529.4290489783751,50.23470920276827 L 528.0824692946219,50.52863571343431 C 528.0822330525721,50.528687279488814 527.9393197817758,50.54229731388181 527.9390780530202,50.54229126633698 L 526.5090395434838,50.50651471186313 C 526.5087900920107,50.50650847111216 526.361370300293,50.48846258354187 526.3611267089843,50.48840847015381 L 525.0282062645438,50.19230249789415 C 525.0280210978286,50.19226136342851 524.9194376322429,50.1603581905365 524.9192596435547,50.160292625427246 L 523.9359815909854,49.79808571434532 C 523.9358773994192,49.798047333639786 523.8751629536947,49.77145995648702 523.8750640869141,49.77140941619873 L 523.3115234375,49.48332977294922" fill="none" stroke="#000000" stroke-linecap="round" stroke-width="0.5" data-llp-id="test-8" data-llp-duration="415.592596939299" data-llp-delay="1669.0714455333305" fill-opacity="0" style="" class="rtDtAwBb_7"></path><path d="M 540.525390625,44.04716491699219 L 540.4065246582031,43.63036575317383 C 540.4065038045247,43.63029263051351 540.389332360557,43.58849661196407 540.389295784657,43.58842994860917 L 540.0586035831782,42.98570926293339 C 540.0585455670025,42.98560352246222 540.015958085227,42.92823019299723 540.0158736683533,42.92814404942337 L 539.3959108709176,42.29550025819626 C 539.3958021055146,42.295389268057455 539.3207651059265,42.2434602831911 539.3206229114647,42.24339759779524 L 538.4157870049482,41.84450725934533 C 538.4156282618068,41.844437278584195 538.3163217448015,41.82176705042177 538.3161483591236,41.82176121102182 L 537.2091423788937,41.78447871606867 C 537.2089481673182,41.78447217528008 537.0956431919308,41.800540898779964 537.0954584571002,41.80060118111872 L 535.9175842021518,42.18496299667801 C 535.9173775575457,42.18503042857547 535.8025299441202,42.24272463351166 535.8023524829958,42.24285015882135 L 534.7076408175092,43.01718324890786 C 534.7074487628311,43.017319096818404 534.605968651441,43.11276927538263 534.6058213077532,43.11295265883853 L 533.7296471444893,44.20343606220218 C 533.7294934297238,44.20362737507996 533.6550320605959,44.328448205598974 533.654936740682,44.328674353692826 L 533.1114882921122,45.618014909701245 C 533.1113929502792,45.61824110979879 533.0754802228458,45.758896538811214 533.0754554552226,45.759140758208694 L 532.9390053167065,47.10459770105741 C 532.9389813780856,47.1048337461351 532.9481108072639,47.24445572800023 532.9481652790926,47.24468664607259 L 533.2436057737202,48.49712393496476 C 533.243657605386,48.497343660804916 533.2975438482449,48.618563986016326 533.2976722381272,48.61874967932403 L 534.0003694517501,49.63507719343886 C 534.000492731963,49.63525549651151 534.0921955594107,49.723112332126206 534.0923789776174,49.72322786462417 L 535.1341935338418,50.37945191294556 C 535.1343763083254,50.37956703997158 535.2527818069321,50.424319532456046 535.2529950374607,50.424354079317936 L 536.524856783123,50.630416655687085 C 536.5250799167626,50.630452807016276 536.6579576869083,50.627451213990206 536.6581789605267,50.62740502388836 L 538.0188403445107,50.3433716702618 C 538.0190790570342,50.34332183984888 538.1535610849083,50.29190002484072 538.1537721450533,50.291777875939225 L 539.4479382410417,49.542792476560635 C 539.4481652877253,49.542661075613374 539.5706921300142,49.447098410324095 539.570874872101,49.44691020369514 L 540.6608923764176,48.3242978722453 C 540.6610836075587,48.32410092271347 540.7602338061855,48.19467602791415 540.7603741810599,48.19444011826605 L 541.5653014238967,46.8417044277883 C 541.5654426392025,46.841467105737344 541.6353972153967,46.69273239625244 541.6354899618842,46.692472277803446 L 542.1433139212784,45.26822016655124 C 542.143398138546,45.26798396930417 542.1830752970378,45.1237977809906 542.1831237792969,45.123551750183104 L 542.4475141679868,43.781861366704824 C 542.4475540296144,43.78165908264068 542.4654067891439,43.65981634648641 542.4654266357422,43.65961112976074 L 542.5741862537008,42.53502079257971 C 542.5742008070088,42.5348703092493 542.580392405192,42.44470882225037 542.5803985595703,42.444557762146 L 542.6143434454904,41.611375627854976 C 542.6143472290574,41.61128275965291 542.616476155599,41.55574245198568 542.6164794921875,41.55564956665039 L 542.6350881474849,41.037614104697475 C 542.6350895138162,41.0375760682002 542.6376089070638,41.015020387013756 542.6376159667968,41.01498298645019 L 542.6768329005637,40.80722223845276 C 542.6768363123795,40.80720416357182 542.6820599161783,40.80534645271301 542.6820739746094,40.80535831451416 L 542.758200378418,40.86958996772766 C 542.7582137339274,40.869601236438754 542.7642858943137,40.87776403857614 542.764292847033,40.87778007020665 L 542.9030950134454,41.19783111166463 C 542.9031193647027,41.19788726097015 542.9167768341192,41.231828536319625 542.9167981600172,41.23188590298518 L 543.1252588533133,41.792645167951996 C 543.1252954253648,41.79274354677041 543.1463840041584,41.85185290056372 543.1464179624709,41.85195221189177 L 543.4117551022251,42.62793257916148 C 543.4118016526005,42.62806871606802 543.4382955481759,42.70991340202578 543.4383376061469,42.71005099316592 L 543.7327933451511,43.673352357397555 C 543.7328450040527,43.67352135763689 543.7613091027803,43.77526275895354 543.7613526415333,43.77543403095941 L 544.0433837941861,44.88488338062512 C 544.0434332733356,44.885078020861904 544.0694334863653,45.0022689936369 544.0694709644499,45.00246629645288 L 544.2972174447069,46.201434235537974 C 544.2972574002297,46.20164458079045 544.3170580576103,46.328072034249736 544.3170843250218,46.32828452328977 L 544.4660479498307,47.533319042896586 C 544.4660728258052,47.53352027596974 544.4768199869792,47.65422525660197 544.4768310546875,47.654427719116214 L 544.5372339427425,48.75938280238659 C 544.5372428862407,48.75954640654628 544.5391535542806,48.85744878133138 544.5391510009765,48.85761260986328 L 544.525119144068,49.75794350832164 C 544.5251174041476,49.75805514743289 544.5215616658529,49.82468109957377 544.5215515136719,49.824792289733885 L 544.4650994099475,50.44307504675044 C 544.4650946921878,50.443126717269244 544.4606151224772,50.47378336842855 544.4606048583985,50.47383422851563 L 544.4028225539212,50.76015442357031 C 544.402820144106,50.760166364574594 544.4009285990397,50.760287757237755 544.4009246826172,50.760276222229 L 544.3797172546386,50.69781414985657 C 544.3797135340373,50.697803191598254 544.3788806355748,50.69107776085482 544.3788815705625,50.69106622603372 L 544.4141589222781,50.255854199363206 C 544.4141651112872,50.25577784637608 544.4187029192625,50.210202075158605 544.4187119068688,50.210126000817255 L 544.5127507808903,49.41414704711117 C 544.5127672789384,49.4140074016807 544.5239527534322,49.33067656940213 544.5239736649978,49.33053751639689 L 544.6881951432108,48.238534627284686 C 544.6882239539965,48.238343047830455 544.7079423359058,48.12420863713139 544.7079794728858,48.124018496148494 L 544.9556534902458,46.8559298905667 C 544.9556969418278,46.855707418881515 544.9866214477344,46.723827841968465 544.9866814225935,46.72360924483455 L 545.3413946805351,45.4307458246157 C 545.341456445988,45.430520701102814 545.3866020609538,45.29870872306824 545.3866912841797,45.298493003845216 L 545.8712634940962,44.12691980019095 C 545.8713434946887,44.1267263789657 545.9297461242676,44.01666523106893 545.9298614501953,44.01649055480957 L 546.5562415072687,43.06775571732787 C 546.5563447663721,43.067599317858324 546.6291748657227,42.98369051615397 546.6293151855468,42.98356628417969 L 547.389234411931,42.31077278322156 C 547.3893674245032,42.310655020713355 547.47783396403,42.254224981307985 547.4779968261719,42.2541540145874 L 548.359895324707,41.86986922264099 C 548.3600500437418,41.86980180425644 548.4564192776725,41.8436777846745 548.4565868637678,41.8436578317561 L 549.437566281665,41.72686173222501 C 549.4377383833172,41.726841241681235 549.5409255430953,41.72381895737704 549.5410985490008,41.72382933994656 L 550.6239177204188,41.788812354753674 C 550.6241076886945,41.78882375528259 550.7374593049341,41.79854844216756 550.7376484390538,41.798569565675045 L 551.8821460938277,41.92639316944586 C 551.8823468828899,41.92641559463951 552.0026749728596,41.936879324421355 552.0028766188808,41.93689189497949 L 553.1536882743653,42.00863318065606 C 553.153855504857,42.00864360575944 553.2539553731283,42.01143925412496 553.2541229248047,42.01143817901611 L 554.1778828108809,42.005510799199484 C 554.1779870931128,42.00551013006413 554.2402007751465,42.00227835845947 554.2403045654297,42.00226821899414 L 554.8319091796875,41.94447326660156" fill="none" stroke="#000000" stroke-linecap="round" stroke-width="0.5" data-llp-id="test-9" data-llp-duration="294.00995020031115" data-llp-delay="2084.6640424726293" fill-opacity="0" style="" class="rtDtAwBb_8"></path><path d="M 559.3388061523438,33.949642181396484 L 559.3243682861328,34.16926155090332 C 559.3243657531739,34.16930008061727 559.3217700053107,34.1922184103088 559.3217638568386,34.192256530526926 L 559.236773007295,34.71919553679246 C 559.2367580966197,34.71928798223215 559.2266924592634,34.77436034136408 559.2266737055998,34.77445208441646 L 559.0353388122331,35.7104637083468 C 559.035305244708,35.7106279209124 559.0142204997929,35.8086093983916 559.0141835497766,35.80877288307509 L 558.7084728493638,37.16138438389985 C 558.7084192159076,37.16162168416315 558.6764571449534,37.303552178806235 558.6764038818512,37.3037895624715 L 558.2896429479988,39.02751056882182 C 558.2895750952034,39.027812976015916 558.2498504774895,39.20883930014086 558.2497854720317,39.20914233215788 L 557.8218398595391,41.204070550445785 C 557.8217647813615,41.2044205378525 557.7777440865835,41.413897106749616 557.7776719383572,41.41424770987433 L 557.3395275178164,43.54340334923884 C 557.3394506503741,43.543776885315914 557.2936416827517,43.76718380823634 557.2935653429444,43.767557452503475 L 556.8641269407826,45.86943853626008 C 556.86405637279,45.86978393044992 556.8213430379232,46.076223374048865 556.8212707519531,46.07656841278076 L 556.4264294529474,47.961243143018024 C 556.4263721571799,47.9615166298232 556.391347076416,48.124898339589436 556.3912872314453,48.12517127990723 L 556.0617292219894,49.6282160098859 C 556.0616906942441,49.62839172682397 556.0381444702149,49.73335680580139 556.0381042480469,49.73353214263916 L 555.8147193708053,50.70731351641532 C 555.8146997658713,50.707398978420336 555.8027668863932,50.758456380844116 555.8027465820312,50.758541679382326 L 555.68701171875,51.24474334716797" fill="none" stroke="#000000" stroke-linecap="round" stroke-width="0.5" data-llp-id="test-10" data-llp-duration="138.14833693148384" data-llp-delay="2378.6739926729406" fill-opacity="0" style="" class="rtDtAwBb_9"></path><path d="M 556.6292724609375,43.41877365112305 L 556.8973876953125,43.10577201843262 C 556.8974347330729,43.10571710586548 556.9276699705172,43.07494960312655 556.9277240539523,43.07490161434673 L 557.3742060269163,42.67873363662554 C 557.374284357087,42.67866413347156 557.4247246719999,42.642060551014424 557.4248150385346,42.642007634160194 L 558.0608830859111,42.26953877434717 C 558.0609946767966,42.26947342893317 558.1316171705906,42.23959387235132 558.1317417753365,42.23955928613796 L 558.9287550575168,42.01833439436061 C 558.9288948844085,42.01829558297609 559.0138231909673,42.00186855993327 559.0139674052347,42.00185243144139 L 560.0201624815899,41.88932258678203 C 560.0203390070418,41.88930284470402 560.1260762916182,41.87935852974631 560.1262534025695,41.879345013245874 L 561.3452653068472,41.786314205008 C 561.3454791685848,41.78629788381357 561.4729792007746,41.772847616022915 561.4731917605493,41.77281895304413 L 562.8685753595119,41.58465611488853 C 562.868820163652,41.584623103864296 563.0138882007874,41.557734743812894 563.014128574029,41.55767782721154 L 564.4889083329983,41.20847318579417 C 564.4891670662894,41.20841192182199 564.6407060315695,41.16149369254712 564.6409541175603,41.16139803936453 L 566.084717993964,40.60473375847457 C 566.0849712858721,40.604636098074415 566.2304225828275,40.53386779372861 566.2306557501064,40.53372877083664 L 567.5334416339286,39.756959997948215 C 567.5336699241852,39.756823882915995 567.660968922933,39.662928922017414 567.661166381836,39.662751007080075 L 568.73234399057,38.69759575581237 C 568.7325251176978,38.69743255617386 568.8290179545085,38.589291303634646 568.8291595458984,38.58909282684326 L 569.598834596819,37.510195059532364 C 569.5989592497253,37.51002032638715 569.6600034993489,37.398163466135664 569.6600830078125,37.39796409606934 L 570.0933315777822,36.31157917196941 C 570.0933980766896,36.31141242378957 570.1188230183919,36.208165391286215 570.1188415527344,36.20798683166504 L 570.2201131678502,35.23233737004045 C 570.2201277483064,35.2321969021102 570.2137170511882,35.14936808077494 570.2136810302734,35.14923152923584 L 570.0168029002953,34.40288702693569 C 570.016774763349,34.4027803627004 569.9839895935058,34.34866365305583 569.9839080810547,34.34858932495117 L 569.542518157959,33.94610263824463 C 569.5424407211303,33.946032026545204 569.4880115371828,33.926838187745574 569.4879069366069,33.926844606004195 L 568.850329184721,33.96596617744376 C 568.8502173289751,33.96597304087735 568.7898130359805,33.98792395099651 568.7897228706796,33.98799050197804 L 568.0032465195105,34.56848846095095 C 568.0031085412033,34.56859030269814 567.9314522404534,34.64033328026588 567.9313505655808,34.64047138158748 L 567.0714424062087,35.808453699084254 C 567.0712915451281,35.80865860826277 566.992358047521,35.93807505035215 566.9922449169708,35.93830297208363 L 566.1320066550282,37.67140684019354 C 566.1318557360349,37.67171089350373 566.0522601917377,37.858084829925964 566.0521449048972,37.85840410081785 L 565.2529978702448,40.071530816002806 C 565.2528576690107,40.071919083847575 565.178432519112,40.30708299281373 565.1783238068014,40.30748122633674 L 564.4792378456135,42.86836383029877 C 564.4791151989537,42.86881310794859 564.4133375902765,43.139320698267994 564.4132402449341,43.13977612827811 L 563.8258377934967,45.88793744532992 C 563.825734740435,45.888419578894315 563.7693780201529,46.17776172383373 563.7692925892003,46.178247289750736 L 563.2836070203151,48.93874979234582 C 563.283523479987,48.93922461247566 563.2367063395183,49.22368383661906 563.2366333007812,49.22416038513184 L 562.8392827505204,51.81671361933971 C 562.839219516352,51.817126196968445 562.8026804300944,52.064036292394 562.802621459961,52.0644495010376 L 562.4799516964645,54.32542344619647 C 562.479906829807,54.32573783060758 562.4532455952963,54.513763675689695 562.4532012939453,54.51407814025879 L 562.2088806787258,56.24834076215478 C 562.2088533551092,56.248534713561206 562.1921610717774,56.364466862996416 562.1921325683594,56.36466064453125 L 562.0328548991323,57.447515733732374 C 562.0328442597549,57.447588065930155 562.0258976033529,57.49074867630005 562.0258850097656,57.490820693969724 L 561.954429144145,57.899448103213736 C 561.9544280522063,57.89945434757347 561.9535723266602,57.89950140253703 561.9535705566407,57.89949531555176 L 561.9439859008789,57.86653429031372 C 561.9439842193603,57.866528507677714 561.9436520765703,57.8630069772789 561.9436526472434,57.863000982221266 L 561.9638671875,57.65064239501953" fill="none" stroke="#000000" stroke-linecap="round" stroke-width="0.5" data-llp-id="test-11" data-llp-duration="370.6370603614363" data-llp-delay="2516.8223296044243" fill-opacity="0" style="" class="rtDtAwBb_10"></path><path d="M 563.410400390625,47.189544677734375 L 563.7584167480469,46.95902442932129 C 563.7584778035482,46.958983987172445 563.7967045398472,46.93791171690824 563.7967713329622,46.9378816832368 L 564.4800302170387,46.63065281981858 C 564.4801500870184,46.63059892001798 564.5537076629109,46.603447383644784 564.5538338048907,46.60341047563143 L 565.6260620515727,46.28968609537581 C 565.6262501617914,46.289631056010855 565.7403371755648,46.26376064827955 565.7405306272651,46.26372916454173 L 567.145070964957,46.035144046422886 C 567.1453173755426,46.03510394377059 567.293282419651,46.01581297457885 567.2935308754336,46.01578855893954 L 568.9743414607639,45.85061604995625 C 568.974636339814,45.8505870723231 569.1511396403902,45.83515250846762 569.1514350733822,45.835129865485875 L 571.0007510749582,45.69339204472693 C 571.001075516362,45.693367178442585 571.195004609466,45.67743949069494 571.1953287603468,45.67741108712059 L 573.0626435165076,45.51378847606221 C 573.0629557415698,45.51376111748234 573.2494048360189,45.494825856526695 573.2497161865234,45.49478988647461 L 574.9502184786674,45.29833234065107 C 574.9504657972801,45.29830376814757 575.0977284342448,45.27686350758871 575.0979736328125,45.27682037353516 L 576.4481240129121,45.0393089584498 C 576.4482822844316,45.03928111614933 576.5412900797526,45.016066567738854 576.5414428710938,45.01601676940918 L 577.3924929234097,44.73863932933887 C 577.3925591253837,44.73861775254202 577.4263813069662,44.71678252220154 577.4264282226562,44.71673107147217 L 577.6804766845703,44.43812537193298 C 577.6805212544759,44.438076493740084 577.6780397564684,44.41157539952337 577.6779868872383,44.411535645294144 L 577.3728123082291,44.18206417087555 C 577.3727587688293,44.18202391272214 577.3368257753132,44.167945952689045 577.3367591374771,44.16793912736408 L 576.520384099452,44.08432259265971 C 576.5202408757611,44.08430792309222 576.4348150447921,44.086102162433406 576.4346725633627,44.08612283280137 L 575.2549031838322,44.25727683713568 C 575.2546962067481,44.257306864153975 575.1338753935788,44.28719442578704 575.1336782876757,44.28726435716885 L 573.7617223665322,44.77402184060014 C 573.761481672511,44.77410723664987 573.6236584385055,44.83829686122193 573.6234381852558,44.83842614619084 L 572.2597607764503,45.63888194726316 C 572.2595215347997,45.63902237810545 572.1266111090547,45.73680466064949 572.1264058342313,45.73699126085249 L 570.969636610783,46.788524850573964 C 570.9694428188252,46.78870101255073 570.8685579223633,46.90685573323568 570.8684143066406,46.907074737548825 L 570.0872137448965,48.09835302723494 C 570.0870890480386,48.09854318155253 570.0332645467122,48.221347544988 570.0332092285156,48.22156810760498 L 569.7325503190668,49.42034391639757 C 569.732501469696,49.420538686757624 569.7295539042155,49.53767228190104 569.7295928955078,49.53786926269531 L 569.9407307434082,50.60452026367187 C 569.9407677851359,50.60470739542643 569.9886552890543,50.70422825670786 569.9887784062026,50.7043739706432 L 570.6764530804663,51.5182637043305 C 570.6765737251461,51.51840649200307 570.764049702354,51.583047427046324 570.764221619471,51.58312082979195 L 571.8415527557783,52.04310448204136 C 571.8417417612408,52.043185180927715 571.9596811806043,52.068937331145 571.9598866213604,52.06894275985134 L 573.2851098095837,52.10396135918398 C 573.2853423048798,52.10396750279789 573.421578638923,52.08620160877618 573.4218017835401,52.086136047456506 L 574.8164300549973,51.676385316471944 C 574.8166747266239,51.67631343037879 574.9541478526281,51.61386437131253 574.9543629573426,51.613727397676364 L 576.2295174642734,50.80173892115335 C 576.2297411755903,50.80159646703466 576.3494962164176,50.69989503762385 576.3496730236318,50.699697353182636 L 577.3453310691125,49.58647295640869 C 577.3455044284393,49.586279126977985 577.4314624125162,49.45845872306824 577.4315765380859,49.458225059509275 L 578.0509903163934,48.190021725782366 C 578.0510939896226,48.18980946260788 578.0944745788574,48.05680433972677 578.094515991211,48.05657176971435 L 578.3198275624497,46.79123158808302 C 578.3198633585957,46.79103055845266 578.325596455892,46.6700719833374 578.3255798339844,46.66986846923828 L 578.2348430420963,45.558911955950805 C 578.2348296818258,45.55874837644513 578.2157182820638,45.463151290893556 578.2156677246094,45.46299514770508 L 577.9382020664915,44.60606172330268 C 577.9381663603845,44.605951447469636 577.9104847310384,44.54278002357483 577.9104278564453,44.54267902374268 L 577.595140793765,43.98278156029338 C 577.5951111333718,43.98272888836063 577.5751256815593,43.95272901280721 577.5750885009766,43.952681350708005 L 577.3642094739085,43.68235376618032 C 577.3642059729278,43.6823492782439 577.3642967325846,43.679741515477495 577.3643005371093,43.67973728179932 L 577.3849020385742,43.65681191444397 C 577.3849056528727,43.6568078924497 577.3875120038664,43.656140444427706 577.3875171064608,43.65614223415435 L 577.7221346443855,43.77350878712276 C 577.7221933492168,43.77352937774609 577.7579888773362,43.78331961782981 577.7580498899903,43.78333177048436 L 578.4597134075855,43.92309088204228 C 578.4598365064481,43.92311540118466 578.5341617445227,43.93135132768565 578.5342872250516,43.93135435344796 L 579.6070518856667,43.95722235787015 C 579.6072400899931,43.957226896116545 579.7191849556125,43.950267814826084 579.71937114883,43.950240002060326 L 581.1131658230665,43.74204077054979 C 581.1134103484479,43.74200424436883 581.2568753078355,43.70838019530603 581.2571105983717,43.708304266473405 L 582.8676864625357,43.18856748840912 C 582.8679690197049,43.18847630651823 583.0316915525206,43.12118433486971 583.0319565623508,43.12105045999923 L 584.7195299570238,42.26853993449898 C 584.7198260225316,42.2683903712489 584.8890354879661,42.16599912741219 584.8893053404029,42.165806245030716 L 586.4977428549107,41.01614362951228 C 586.4980250369308,41.01594193431657 586.6570022765776,40.88359518460453 586.6572517910113,40.883354248530296 L 588.0496369597803,39.538839578280395 C 588.0498686386644,39.538615864565685 588.1776850585937,39.39526970481872 588.177880859375,39.39501399993897 L 589.2455158925763,38.00074230168395 C 589.2456773239761,38.00053148129601 589.3310830688476,37.867324721654256 589.3312072753906,37.86709003448486 L 590.0120487637276,36.580646036576624 C 590.0121392164164,36.58047512701785 590.0541278788248,36.47352015813192 590.0541778564453,36.47333335876465 L 590.329810091398,35.44311369980549 C 590.3298408920699,35.442998577357244 590.3332378234863,35.37342194239299 590.333218383789,35.37330436706543 L 590.2266536823952,34.7287789147901 C 590.2266395438185,34.7286934017408 590.1983957519532,34.69338698450724 590.1983154296875,34.69335441589355 L 589.7633703613282,34.516995372772215 C 589.7632940551758,34.51696443258921 589.7184224345015,34.518652296525 589.7183486683438,34.51868888173789 L 588.9828046404484,34.883490787165506 C 588.9826755976366,34.88355478749979 588.9137950413866,34.93330145114139 588.9136937144452,34.93340382760858 L 587.9573179865035,35.89968551883404 C 587.9571502012881,35.89985504193777 587.8662925369798,36.00911166276453 587.8661564504083,36.00930754641942 L 586.7957187111923,37.550100692262376 C 586.7955309150977,37.55037100684937 586.6934874546339,37.71825454447505 586.693333968252,37.7185457132915 L 585.6319719962642,39.731984986775416 C 585.6317857924095,39.732338221735674 585.5320003395881,39.94890126461836 585.5318528128314,39.94927232077141 L 584.6117214248212,42.26356716981054 C 584.611559998262,42.26397318645073 584.5285672421569,42.511314451166996 584.5284511009701,42.511735662836905 L 583.865687112954,44.915395670688454 C 583.8655741129421,44.91580549019355 583.8137717997233,45.164167153040566 583.8137115478515,45.16458797454834 L 583.4859203406761,47.45400382244449 C 583.4858681924702,47.4543680449325 583.4729615987142,47.67325087102254 583.4729705810547,47.673618698120116 L 583.5219660032076,49.67998262246547 C 583.5219733496031,49.68028345757157 583.5480220336914,49.856990572611494 583.5481018066406,49.85728073120117 L 583.9832834146724,51.44016920252177 C 583.9833484953474,51.440405920821306 584.0466885681152,51.57002986272176 584.0468353271484,51.57022666931152 L 584.8427297631401,52.63753589273482 C 584.8428652033177,52.637717520528895 584.9447987976074,52.7205670375824 584.9450042724609,52.72066249847412 L 586.057650604248,53.23758322715759 C 586.0578458053589,53.23767391500473 586.18053575715,53.262773251609914 586.1807508903261,53.26276650803236 L 587.5530194781101,53.21975129384644 C 587.5532602269851,53.21974374731764 587.6926004596316,53.1919941692892 587.6928257316016,53.19190890786473 L 589.2271675316973,52.61118789076677 C 589.2274367144693,52.61108600988658 589.3798970464309,52.53344798215524 589.3801377644347,52.53329020407981 L 590.9535649936905,51.501990857555064 C 590.9538410335552,51.50180992784515 591.1098461232609,51.38182529303288 591.110091839549,51.381604936338746 L 592.5993522482274,50.046046341787644 C 592.5996135219833,50.04581203326228 592.7479368949668,49.897762553064396 592.7481716860035,49.897501712826546 L 594.0435653728815,48.45838886521939 C 594.0437709036698,48.458160531546746 594.1611289469402,48.317003255208334 594.1613159179688,48.316759490966795 L 595.1845647563434,46.98269464254603 C 595.1847063764264,46.982510004784906 595.2658005777995,46.86951680564881 595.2659301757812,46.869323539733884 L 595.9804974440032,45.80370897555914 C 595.9805779147628,45.80358897172296 596.0266293334961,45.730521973292035 596.0267028808594,45.730397605895995 L 596.4377697804027,45.035290159316055 C 596.4377969573065,45.035244203613296 596.4531648661296,45.00727700360616 596.4531890869141,45.00722942352295 L 596.5866884675481,44.74497897338362 C 596.5867036645183,44.74494911996974 596.5866486816407,44.7449209168752 596.5866333007813,44.744950675964354 L 596.5033459472656,44.906096143722536 C 596.5033313354493,44.90612441485723 596.4951732441698,44.92330584233601 596.4951605714,44.923335034169476 L 596.2271200891169,45.540768573607885 C 596.2270730644709,45.54087689528147 596.2004910346808,45.606278652067495 596.2004491562172,45.606389065366436 L 595.8096318328109,46.63678574660328 C 595.8095632683682,46.63696651795087 595.771096514455,46.745962358012974 595.7710364275468,46.746146121247534 L 595.3344411036039,48.081381555329955 C 595.3343645079331,48.081615807160496 595.2922801568532,48.222807165843314 595.292216002186,48.22304512591472 L 594.8920791086109,49.70721779697747 C 594.8920095643166,49.707475748050534 594.8567926228841,49.86317144902547 594.8567443847656,49.86343421936035 L 594.5935138851974,51.297345173764384 C 594.5934747959446,51.29755810694575 594.5784109497071,51.425867940266926 594.5783996582031,51.42608413696289 L 594.5163978575171,52.613223118928374 C 594.5163899916117,52.6133737262118 594.5218488769531,52.70281663131714 594.521875,52.70296516418457 L 594.6661037041779,53.52303424341533 C 594.6661192797212,53.5231228042991 594.6829183756511,53.5735907313029 594.682958984375,53.57367095947266 L 594.9082767424316,54.01881745956103 C 594.9082972489932,54.018857973119495 594.9250134277344,54.039474278767905 594.925048828125,54.039502716064455 L 595.1268310546875,54.201595306396484" fill="none" stroke="#000000" stroke-linecap="round" stroke-width="0.5" data-llp-id="test-12" data-llp-duration="841.287356553841" data-llp-delay="2887.4593899658607" fill-opacity="0" style="" class="rtDtAwBb_11"></path><path d="M 597.8550415039062,38.91544723510742 L 597.8380506013967,38.84061208953978 C 597.8380480336368,38.84060078003559 597.836690205892,38.833802207310995 597.8366882324219,38.83379077911377 L 597.8257804066387,38.77062448773108 C 597.825779270127,38.770617906288415 597.8252721659343,38.76666009775798 597.8252716064453,38.76665344238281 L 597.8221278703215,38.72925727222009 C 597.8221277191523,38.72925547399254 597.822462717692,38.72910066350301 597.8224639892578,38.729101943969724 L 597.8297119140625,38.73640060424805" fill="none" stroke="#000000" stroke-linecap="round" stroke-width="0.5" data-llp-id="test-13" data-llp-duration="1.2351559902024103" data-llp-delay="3728.746746519702" fill-opacity="0" style="" class="rtDtAwBb_12"></path><path d="M 607.0343627929688,46.194862365722656 L 606.8903900146485,45.89414596557617 C 606.8903647562663,45.89409320831299 606.8720160417704,45.86455995512556 606.8719799332144,45.86451393896671 L 606.5117569556451,45.4054516109498 C 606.5116937586315,45.40537107369927 606.4687059347697,45.362408911189505 606.4686253597971,45.3623457622778 L 605.8204893734586,44.854383042813595 C 605.8203756653908,44.85429392654702 605.7460199647688,44.812246128885604 605.7458849915636,44.81219461706635 L 604.8195665884454,44.458670033587694 C 604.8194040764448,44.458608011730945 604.7189135333166,44.43668113892312 604.7187399565441,44.4366698267571 L 603.5905085310303,44.36314189435299 C 603.5903105956925,44.36312899471573 603.4733021100047,44.37244921521729 603.4731087126146,44.37249328616058 L 602.263087198326,44.64823014831682 C 602.2628749138498,44.648278523204915 602.1420561171348,44.69355665990875 602.1418643253677,44.69365971691599 L 600.9929055941981,45.31103891998887 C 600.9927040224909,45.311147232129755 600.8828323884916,45.390659490103744 600.88266649654,45.390817105247045 L 599.929616112913,46.29631716904409 C 599.9294489110913,46.296476028704404 599.844829613462,46.40361177184038 599.8447138075994,46.40381122570226 L 599.202733737255,47.509501398077106 C 599.2026211091725,47.5096953788091 599.1553684683063,47.633374809904794 599.1553230608006,47.63359447275506 L 598.9076868073369,48.8315568903858 C 598.9076433623801,48.831767059231 598.9048616087,48.95795940706115 598.9048957501327,48.95817128620201 L 599.0942224486395,50.13311841080668 C 599.0942556638497,50.13332454188117 599.1363474820012,50.24846461204124 599.1364550421024,50.248643564813435 L 599.7586354962458,51.283794292193306 C 599.7587446507114,51.28397589758408 599.8413794480773,51.37718498195968 599.8415466641713,51.377315112637056 L 600.8506954972711,52.162653521134786 C 600.850872540926,52.16279129980294 600.9673775129069,52.22539538956116 600.9675901179877,52.22546698911962 L 602.2740142715244,52.665434802703054 C 602.2742434687443,52.665511990038766 602.4150752133626,52.68979544658268 602.415317025322,52.68979947482069 L 603.8953111393521,52.71445403929279 C 603.8955707874422,52.71445836465498 604.0479824173834,52.69484102757566 604.0482325071861,52.69477109239047 L 605.550626347039,52.27464124169228 C 605.5508899249056,52.27456753470093 605.6993393572902,52.209552505021996 605.6995722658196,52.209408770442515 L 607.0627740234472,51.3681375985563 C 607.0630131816504,51.36799000712264 607.1912799962427,51.26189766891264 607.1914698240415,51.26169043647269 L 608.2718720751865,50.082229915195214 C 608.272061619441,50.08202299229675 608.3668743469177,49.94541872125506 608.3670019020861,49.94516877368182 L 609.0735319798699,48.56070524654542 C 609.0736559325152,48.560462358207324 609.1253663984394,48.407631594461066 609.1254153904962,48.40736334312108 L 609.3908166679623,46.954183932536914 C 609.39086322959,46.95392898878067 609.3939945171663,46.80096673206339 609.3939584280724,46.80071009636573 L 609.1923979252434,45.36737900826294 C 609.1923675607401,45.367163081104046 609.1607869262696,45.241409487406415 609.1607116699219,45.241204833984376 L 608.7468464329525,44.115732503130005 C 608.7467961131368,44.11559566254747 608.7099940287272,44.036903458913166 608.7099212646484,44.036777114868165 L 608.295166015625,43.31661605834961" fill="none" stroke="#000000" stroke-linecap="round" stroke-width="0.5" data-llp-id="test-14" data-llp-duration="227.9486157714383" data-llp-delay="3729.981902509904" fill-opacity="0" style="" class="rtDtAwBb_13"></path><style data-made-with="vivus-instant">.rtDtAwBb_0{stroke-dasharray:0 2;stroke-dashoffset:1;animation:rtDtAwBb_draw 2000ms linear 0ms forwards;}.rtDtAwBb_1{stroke-dasharray:39 41;stroke-dashoffset:40;animation:rtDtAwBb_draw 2000ms linear 76ms forwards;}.rtDtAwBb_2{stroke-dasharray:27 29;stroke-dashoffset:28;animation:rtDtAwBb_draw 2000ms linear 153ms forwards;}.rtDtAwBb_3{stroke-dasharray:161 163;stroke-dashoffset:162;animation:rtDtAwBb_draw 2000ms linear 230ms forwards;}.rtDtAwBb_4{stroke-dasharray:17 19;stroke-dashoffset:18;animation:rtDtAwBb_draw 2000ms linear 307ms forwards;}.rtDtAwBb_5{stroke-dasharray:36 38;stroke-dashoffset:37;animation:rtDtAwBb_draw 2000ms linear 384ms forwards;}.rtDtAwBb_6{stroke-dasharray:1 3;stroke-dashoffset:2;animation:rtDtAwBb_draw 2000ms linear 461ms forwards;}.rtDtAwBb_7{stroke-dasharray:59 61;stroke-dashoffset:60;animation:rtDtAwBb_draw 2000ms linear 538ms forwards;}.rtDtAwBb_8{stroke-dasharray:58 60;stroke-dashoffset:59;animation:rtDtAwBb_draw 2000ms linear 615ms forwards;}.rtDtAwBb_9{stroke-dasharray:18 20;stroke-dashoffset:19;animation:rtDtAwBb_draw 2000ms linear 692ms forwards;}.rtDtAwBb_10{stroke-dasharray:46 48;stroke-dashoffset:47;animation:rtDtAwBb_draw 2000ms linear 769ms forwards;}.rtDtAwBb_11{stroke-dasharray:106 108;stroke-dashoffset:107;animation:rtDtAwBb_draw 2000ms linear 846ms forwards;}.rtDtAwBb_12{stroke-dasharray:1 3;stroke-dashoffset:2;animation:rtDtAwBb_draw 2000ms linear 923ms forwards;}.rtDtAwBb_13{stroke-dasharray:31 33;stroke-dashoffset:32;animation:rtDtAwBb_draw 2000ms linear 1000ms forwards;}@keyframes rtDtAwBb_draw{100%{stroke-dashoffset:0;}}@keyframes rtDtAwBb_fade{0%{stroke-opacity:1;}94.44444444444444%{stroke-opacity:1;}100%{stroke-opacity:0;}}</style></svg>